<?xml version="1.0" encoding="utf-8"?>
<!-- Generator: Adobe Illustrator 23.0.0, SVG Export Plug-In . SVG Version: 6.00 Build 0)  -->
<svg version="1.1" id="图层_1" xmlns="http://www.w3.org/2000/svg" xmlns:xlink="http://www.w3.org/1999/xlink" x="0px" y="0px"
	 viewBox="0 0 235 67" style="enable-background:new 0 0 235 67;" xml:space="preserve">
<style type="text/css">
	.st0{fill:#0071BC;}
	.st1{fill:#FBB03B;}
	.st2{fill:#FFFFFF;}
	.st3{font-family:'TimesNewRomanPS-BoldMT';}
	.st4{font-size:49.1547px;}
	.st5{font-size:41.511px;}
	.st6{font-size:33.9688px;}
</style>
<g>
	<g>
		<g>
			<g>
				<polygon class="st0" points="78.16,23.94 77.4,23.94 76.79,20.56 78.76,20.56 				"/>
			</g>
			<ellipse class="st0" cx="77.78" cy="20.48" rx="1.55" ry="0.36"/>
		</g>
		<g>
			<g>
				<polygon class="st0" points="73.09,25.09 72.43,25.47 70.22,22.85 71.93,21.87 				"/>
			</g>
			<ellipse transform="matrix(0.866 -0.5 0.5 0.866 -1.6259 38.5025)" class="st0" cx="71.03" cy="22.29" rx="1.55" ry="0.36"/>
		</g>
		<g>
			<g>
				<polygon class="st0" points="69.28,28.62 68.9,29.28 65.68,28.12 66.66,26.41 				"/>
			</g>
			<ellipse transform="matrix(0.5 -0.866 0.866 0.5 9.473 70.8525)" class="st0" cx="66.1" cy="27.22" rx="1.55" ry="0.36"/>
		</g>
		<g>
			<g>
				<polygon class="st0" points="67.75,33.59 67.75,34.35 64.38,34.95 64.38,32.98 				"/>
			</g>
			<ellipse class="st0" cx="64.29" cy="33.97" rx="0.36" ry="1.55"/>
		</g>
		<g>
			<g>
				<polygon class="st0" points="68.9,38.65 69.28,39.31 66.66,41.52 65.68,39.81 				"/>
			</g>
			<ellipse transform="matrix(0.866 -0.5 0.5 0.866 -11.5003 38.5025)" class="st0" cx="66.1" cy="40.71" rx="0.36" ry="1.55"/>
		</g>
		<g>
			<g>
				<polygon class="st0" points="72.43,42.46 73.09,42.85 71.93,46.07 70.22,45.08 				"/>
			</g>
			<ellipse transform="matrix(0.5 -0.866 0.866 0.5 -4.0158 84.3413)" class="st0" cx="71.03" cy="45.65" rx="0.36" ry="1.55"/>
		</g>
		<g>
			<g>
				<polygon class="st0" points="77.4,44 78.16,44 78.76,47.37 76.79,47.37 				"/>
			</g>
			<ellipse class="st0" cx="77.78" cy="47.46" rx="1.55" ry="0.36"/>
		</g>
		<g>
			<g>
				<polygon class="st0" points="82.46,42.85 83.12,42.46 85.33,45.08 83.62,46.07 				"/>
			</g>
			<ellipse transform="matrix(0.866 -0.5 0.5 0.866 -11.5003 48.377)" class="st0" cx="84.52" cy="45.65" rx="1.55" ry="0.36"/>
		</g>
		<g>
			<g>
				<polygon class="st0" points="86.27,39.31 86.66,38.65 89.88,39.81 88.89,41.52 				"/>
			</g>
			<ellipse transform="matrix(0.5 -0.866 0.866 0.5 9.473 97.83)" class="st0" cx="89.46" cy="40.71" rx="1.55" ry="0.36"/>
		</g>
		<g>
			<g>
				<polygon class="st0" points="87.81,34.35 87.81,33.59 91.18,32.98 91.18,34.95 				"/>
			</g>
			<ellipse class="st0" cx="91.27" cy="33.97" rx="0.36" ry="1.55"/>
		</g>
		<g>
			<g>
				<polygon class="st0" points="86.66,29.28 86.27,28.62 88.89,26.41 89.88,28.12 				"/>
			</g>
			<ellipse transform="matrix(0.866 -0.5 0.5 0.866 -1.6259 48.377)" class="st0" cx="89.46" cy="27.22" rx="0.36" ry="1.55"/>
		</g>
		<g>
			<g>
				<polygon class="st0" points="83.12,25.47 82.46,25.09 83.62,21.87 85.33,22.85 				"/>
			</g>
			<ellipse transform="matrix(0.5 -0.866 0.866 0.5 22.9618 84.3413)" class="st0" cx="84.52" cy="22.29" rx="0.36" ry="1.55"/>
		</g>
	</g>
	<circle class="st1" cx="77.78" cy="33.97" r="10.61"/>
	<g>
		<circle class="st2" cx="75.79" cy="27.1" r="0.82"/>
		<circle class="st2" cx="79.31" cy="29.46" r="1.36"/>
		<circle class="st2" cx="73.46" cy="31.86" r="0.59"/>
		<circle class="st2" cx="84.09" cy="38.5" r="0.92"/>
		<circle class="st2" cx="75.1" cy="40.08" r="0.95"/>
		<circle class="st2" cx="79.58" cy="42.16" r="0.63"/>
		<circle class="st2" cx="80.5" cy="37.77" r="0.63"/>
		<circle class="st2" cx="70.22" cy="32.7" r="0.69"/>
		<circle class="st2" cx="70.64" cy="37.18" r="0.82"/>
		<circle class="st2" cx="83.49" cy="32.7" r="0.62"/>
		<circle class="st2" cx="85.58" cy="29.78" r="0.8"/>
		<circle class="st2" cx="80.57" cy="25.47" r="0.65"/>
		<circle class="st2" cx="77.78" cy="34.5" r="1.02"/>
	</g>
	<text transform="matrix(1 0 0 1 30.521 46.3408)" class="st3 st4">C</text>
	<text transform="matrix(1 0 0 1 0.5078 46.3408)" class="st3 st4">S</text>
	<text transform="matrix(1 0 0 1 92.0122 45.8506)"><tspan x="0" y="0" class="st3 st4">vid</tspan><tspan x="65.57" y="0" class="st3 st5"> </tspan><tspan x="75.95" y="0" class="st3 st4">v</tspan><tspan x="100.53" y="0" class="st3 st6">2.0</tspan></text>
</g>
</svg>
