<svg id="图层_1" data-name="图层 1" xmlns="http://www.w3.org/2000/svg" xmlns:xlink="http://www.w3.org/1999/xlink" viewBox="0 0 65.3 74.06"><defs><style>.cls-1{fill:url(#未命名的渐变_11);}.cls-2{fill:url(#未命名的渐变_11-2);}.cls-3{fill:url(#未命名的渐变_11-3);}.cls-4{fill:url(#未命名的渐变_11-4);}.cls-5{fill:url(#未命名的渐变_11-5);}.cls-6{fill:url(#未命名的渐变_11-6);}.cls-7{fill:url(#未命名的渐变_11-7);}.cls-8{fill:url(#未命名的渐变_11-8);}.cls-9{fill:url(#未命名的渐变_11-9);}.cls-10{fill:url(#未命名的渐变_11-10);}.cls-11{fill:url(#未命名的渐变_11-11);}.cls-12{fill:url(#未命名的渐变_47);}.cls-13{fill:url(#未命名的渐变_47-2);}.cls-14{fill:url(#未命名的渐变_48);}.cls-15{opacity:0.5;}.cls-16{fill:#040000;}.cls-17{opacity:0.45;}.cls-18{fill:url(#未命名的渐变_12);}.cls-19{fill:#bc5d5d;}.cls-20{fill:#911f22;}.cls-21{fill:#db6441;}.cls-22{fill:url(#未命名的渐变_20);}.cls-23{fill:url(#未命名的渐变_20-2);}.cls-24{fill:url(#未命名的渐变_20-3);}.cls-25{fill:url(#未命名的渐变_20-4);}.cls-26{fill:url(#未命名的渐变_20-5);}.cls-27{fill:url(#未命名的渐变_20-6);}.cls-28{fill:url(#未命名的渐变_20-7);}.cls-29{fill:url(#未命名的渐变_20-8);}.cls-30{fill:url(#未命名的渐变_28);}.cls-31{fill:url(#未命名的渐变_28-2);}.cls-32{fill:url(#未命名的渐变_28-3);}.cls-33{fill:url(#未命名的渐变_28-4);}.cls-34{fill:url(#未命名的渐变_28-5);}.cls-35{fill:url(#未命名的渐变_28-6);}.cls-36{fill:url(#未命名的渐变_28-7);}.cls-37{fill:url(#未命名的渐变_28-8);}.cls-38{fill:url(#未命名的渐变_44);}.cls-39{fill:url(#未命名的渐变_44-2);}.cls-40{fill:url(#未命名的渐变_44-3);}.cls-41{fill:url(#未命名的渐变_44-4);}.cls-42{fill:url(#未命名的渐变_44-5);}.cls-43{fill:url(#未命名的渐变_44-6);}.cls-44{fill:url(#未命名的渐变_44-7);}.cls-45{fill:url(#未命名的渐变_44-8);}.cls-46{fill:url(#未命名的渐变_44-9);}.cls-47{fill:url(#未命名的渐变_44-10);}.cls-48{fill:url(#未命名的渐变_44-11);}.cls-49{fill:url(#未命名的渐变_44-12);}.cls-50{fill:url(#未命名的渐变_44-13);}.cls-51{fill:url(#未命名的渐变_44-14);}.cls-52{fill:url(#未命名的渐变_44-15);}.cls-53{fill:url(#未命名的渐变_44-16);}.cls-54{fill:url(#未命名的渐变_45);}.cls-55{opacity:0.3;}.cls-56{opacity:0.25;}.cls-57{opacity:0.2;}.cls-58{opacity:0.1;}</style><radialGradient id="未命名的渐变_11" cx="23.9" cy="21.5" r="22.73" gradientUnits="userSpaceOnUse"><stop offset="0" stop-color="#ea5458"/><stop offset="1" stop-color="#5e2014"/></radialGradient><radialGradient id="未命名的渐变_11-2" cx="5.98" cy="4.71" r="6.86" xlink:href="#未命名的渐变_11"/><radialGradient id="未命名的渐变_11-3" cx="17.93" cy="4.71" r="6.86" xlink:href="#未命名的渐变_11"/><radialGradient id="未命名的渐变_11-4" cx="41.83" cy="4.71" r="6.86" xlink:href="#未命名的渐变_11"/><radialGradient id="未命名的渐变_11-5" cx="29.88" cy="4.71" r="6.86" xlink:href="#未命名的渐变_11"/><radialGradient id="未命名的渐变_11-6" cx="7285.16" cy="13666" r="6.86" gradientTransform="matrix(0.5, 0.87, -0.87, 0.5, 8205.4, -13126.6)" xlink:href="#未命名的渐变_11"/><radialGradient id="未命名的渐变_11-7" cx="7309.05" cy="13666" r="6.86" gradientTransform="matrix(0.5, 0.87, -0.87, 0.5, 8205.4, -13126.6)" xlink:href="#未命名的渐变_11"/><radialGradient id="未命名的渐变_11-8" cx="7297.11" cy="13666" r="6.86" gradientTransform="matrix(0.5, 0.87, -0.87, 0.5, 8205.4, -13126.6)" xlink:href="#未命名的渐变_11"/><radialGradient id="未命名的渐变_11-9" cx="8221.62" cy="-13130.33" r="6.86" gradientTransform="translate(7283.46 13700.78) rotate(-60)" xlink:href="#未命名的渐变_11"/><radialGradient id="未命名的渐变_11-10" cx="8215.65" cy="-13119.98" r="6.86" gradientTransform="translate(7283.46 13700.78) rotate(-60)" xlink:href="#未命名的渐变_11"/><radialGradient id="未命名的渐变_11-11" cx="8227.6" cy="-13119.98" r="6.86" gradientTransform="translate(7283.46 13700.78) rotate(-60)" xlink:href="#未命名的渐变_11"/><radialGradient id="未命名的渐变_47" cx="5.91" cy="2.24" r="1.78" gradientUnits="userSpaceOnUse"><stop offset="0" stop-color="#eb5f26"/><stop offset="1" stop-color="#f29670"/></radialGradient><radialGradient id="未命名的渐变_47-2" cx="1.78" cy="1.78" r="1.78" xlink:href="#未命名的渐变_47"/><radialGradient id="未命名的渐变_48" cx="1.35" cy="1.35" r="1.35" gradientUnits="userSpaceOnUse"><stop offset="0" stop-color="#a59d45"/><stop offset="1" stop-color="#f5f081"/></radialGradient><radialGradient id="未命名的渐变_12" cx="90.88" cy="-8.29" r="25.23" gradientTransform="matrix(1, 0, 0, -1, -55.9, 37)" gradientUnits="userSpaceOnUse"><stop offset="0" stop-color="#651818"/><stop offset="0.2" stop-color="#813d3d"/><stop offset="0.43" stop-color="#9b6161"/><stop offset="0.65" stop-color="#b07a7a"/><stop offset="0.85" stop-color="#bb8a8a"/><stop offset="1" stop-color="#bf8e8f"/></radialGradient><linearGradient id="未命名的渐变_20" x1="110.01" y1="-1.54" x2="106.63" y2="-9.03" gradientTransform="matrix(1, 0, 0, -1, -55.9, 37)" gradientUnits="userSpaceOnUse"><stop offset="0" stop-color="#022224"/><stop offset="0.09" stop-color="#1a919a"/><stop offset="0.11" stop-color="#1d949d"/><stop offset="0.14" stop-color="#2d9ba2"/><stop offset="0.17" stop-color="#46a5ac"/><stop offset="0.21" stop-color="#6db5bb"/><stop offset="0.25" stop-color="#a3ccd0"/><stop offset="0.27" stop-color="#c5dbde"/><stop offset="0.31" stop-color="#c2dadc"/><stop offset="0.33" stop-color="#b8d6d8"/><stop offset="0.35" stop-color="#a9cfd3"/><stop offset="0.37" stop-color="#92c6ca"/><stop offset="0.39" stop-color="#78babe"/><stop offset="0.4" stop-color="#56acb3"/><stop offset="0.42" stop-color="#359ea5"/><stop offset="0.43" stop-color="#1a919a"/><stop offset="1" stop-color="#022224"/></linearGradient><linearGradient id="未命名的渐变_20-2" x1="118.38" y1="-13.15" x2="110.89" y2="-14.4" xlink:href="#未命名的渐变_20"/><linearGradient id="未命名的渐变_20-3" x1="113.05" y1="-26.53" x2="108.02" y2="-20.54" xlink:href="#未命名的渐变_20"/><linearGradient id="未命名的渐变_20-4" x1="106.04" y1="12.95" x2="105.11" y2="4.86" xlink:href="#未命名的渐变_20"/><linearGradient id="未命名的渐变_20-5" x1="118.14" y1="8.87" x2="113.92" y2="1.99" xlink:href="#未命名的渐变_20"/><linearGradient id="未命名的渐变_20-6" x1="127.07" y1="-1.13" x2="119.78" y2="-4.76" xlink:href="#未命名的渐变_20"/><linearGradient id="未命名的渐变_20-7" x1="128.75" y1="-15.35" x2="121.06" y2="-12.54" xlink:href="#未命名的渐变_20"/><linearGradient id="未命名的渐变_20-8" x1="100.91" y1="-31.39" x2="102.03" y2="-23.09" xlink:href="#未命名的渐变_20"/><linearGradient id="未命名的渐变_28" x1="104.18" y1="-9.51" x2="98.4" y2="-3.39" gradientTransform="matrix(1, 0, 0, -1, -55.9, 37)" gradientUnits="userSpaceOnUse"><stop offset="0" stop-color="#10676e"/><stop offset="0.09" stop-color="#1a919a"/><stop offset="0.25" stop-color="#c5dbde"/><stop offset="0.59" stop-color="#1a919a"/><stop offset="0.65" stop-color="#187d84"/><stop offset="0.81" stop-color="#054d52"/><stop offset="0.94" stop-color="#042e31"/><stop offset="1" stop-color="#022224"/></linearGradient><linearGradient id="未命名的渐变_28-2" x1="108.29" y1="-11.11" x2="112.7" y2="-3.75" xlink:href="#未命名的渐变_28"/><linearGradient id="未命名的渐变_28-3" x1="109.82" y1="-15.93" x2="117.83" y2="-17.52" xlink:href="#未命名的渐变_28"/><linearGradient id="未命名的渐变_28-4" x1="103.84" y1="-21.82" x2="109.97" y2="-28.41" xlink:href="#未命名的渐变_28"/><linearGradient id="未命名的渐变_28-5" x1="109.29" y1="3.45" x2="110.11" y2="11.46" xlink:href="#未命名的渐变_28"/><linearGradient id="未命名的渐变_28-6" x1="116.37" y1="-0.68" x2="121.8" y2="5.45" xlink:href="#未命名的渐变_28"/><linearGradient id="未命名的渐变_28-7" x1="120.13" y1="-8.37" x2="128.26" y2="-5.6" xlink:href="#未命名的渐变_28"/><linearGradient id="未命名的渐变_28-8" x1="101.82" y1="4.19" x2="97.88" y2="11.67" xlink:href="#未命名的渐变_28"/><radialGradient id="未命名的渐变_44" cx="48.85" cy="41.27" r="2.38" gradientTransform="matrix(1, 0, 0, -1, -9.24, 80.17)" gradientUnits="userSpaceOnUse"><stop offset="0" stop-color="#dfd3c6"/><stop offset="0.43" stop-color="#d77e1a"/><stop offset="0.63" stop-color="#ad6721"/><stop offset="0.88" stop-color="#804d22"/><stop offset="1" stop-color="#6d421e"/></radialGradient><radialGradient id="未命名的渐变_44-2" cx="55.7" cy="47.58" r="2.38" xlink:href="#未命名的渐变_44"/><radialGradient id="未命名的渐变_44-3" cx="53.87" cy="38.18" r="2.38" xlink:href="#未命名的渐变_44"/><radialGradient id="未命名的渐变_44-4" cx="62.72" cy="34.51" r="2.38" xlink:href="#未命名的渐变_44"/><radialGradient id="未命名的渐变_44-5" cx="53.6" cy="31.55" r="2.38" xlink:href="#未命名的渐变_44"/><radialGradient id="未命名的渐变_44-6" cx="55.5" cy="22.12" r="2.38" xlink:href="#未命名的渐变_44"/><radialGradient id="未命名的渐变_44-7" cx="47.19" cy="27.04" r="2.38" xlink:href="#未命名的渐变_44"/><radialGradient id="未命名的渐变_44-8" cx="46.65" cy="54.79" r="2.38" xlink:href="#未命名的渐变_44"/><radialGradient id="未命名的渐变_44-9" cx="52.41" cy="62.62" r="2.38" xlink:href="#未命名的渐变_44"/><radialGradient id="未命名的渐变_44-10" cx="55.51" cy="53.38" r="2.38" xlink:href="#未命名的渐变_44"/><radialGradient id="未命名的渐变_44-11" cx="64.41" cy="57.32" r="2.38" xlink:href="#未命名的渐变_44"/><radialGradient id="未命名的渐变_44-12" cx="62.5" cy="47.75" r="2.38" xlink:href="#未命名的渐变_44"/><radialGradient id="未命名的渐变_44-13" cx="72.13" cy="46.34" r="2.38" xlink:href="#未命名的渐变_44"/><radialGradient id="未命名的渐变_44-14" cx="65.18" cy="39.59" r="2.38" xlink:href="#未命名的渐变_44"/><radialGradient id="未命名的渐变_44-15" cx="72.16" cy="32.43" r="2.38" xlink:href="#未命名的渐变_44"/><radialGradient id="未命名的渐变_44-16" cx="96.03" cy="-4.69" r="2.38" gradientTransform="matrix(1, 0, 0, -1, -55.9, 37)" xlink:href="#未命名的渐变_44"/><radialGradient id="未命名的渐变_45" cx="96.85" cy="165.89" r="22.5" gradientTransform="matrix(1, 0, 0, -1.49, -55.9, 292.23)" gradientUnits="userSpaceOnUse"><stop offset="0.13" stop-color="#172d30" stop-opacity="0.7"/><stop offset="1" stop-color="#182c53" stop-opacity="0"/></radialGradient><symbol id="New_Symbol_2" data-name="New Symbol 2" viewBox="0 0 47.8 42.99"><path class="cls-1" d="M43,11.84a6,6,0,0,1-1.8.07c-.76-.08-.94.29-.5.88a6,6,0,0,1-1.26,8.34,6,6,0,0,1-4.21,1.13c-.72-.08-.94.3-.51.87a6,6,0,0,1-5.47,9.47c-.71-.08-.95.26-.5.87a6.15,6.15,0,0,1,.85,1.6A6,6,0,1,1,19,33.56c.44-.62.27-1-.45-1a6,6,0,0,1-5.47-9.47c.43-.58.21-1-.5-.87a6,6,0,0,1-5.47-9.47c.43-.59.25-1-.5-.88a5.8,5.8,0,0,1-1.81-.07,6,6,0,1,1,6.42-8.65c.37.7,1,.7,1.39,0a6,6,0,0,1,10.56,0,.72.72,0,0,0,1.39,0,6,6,0,0,1,10.56,0,.73.73,0,0,0,1.39,0A6,6,0,1,1,43,11.85Z"/><circle class="cls-2" cx="5.98" cy="5.98" r="5.97"/><circle class="cls-3" cx="17.93" cy="5.98" r="5.97"/><circle class="cls-4" cx="41.83" cy="5.98" r="5.97"/><circle class="cls-5" cx="29.88" cy="5.98" r="5.97"/><circle class="cls-6" cx="11.96" cy="16.32" r="5.97"/><circle class="cls-7" cx="23.9" cy="37.02" r="5.97"/><circle class="cls-8" cx="17.93" cy="26.67" r="5.97"/><circle class="cls-9" cx="23.9" cy="16.32" r="5.97"/><circle class="cls-10" cx="29.88" cy="26.67" r="5.97"/><circle class="cls-11" cx="35.85" cy="16.32" r="5.97"/></symbol><symbol id="New_Symbol_3" data-name="New Symbol 3" viewBox="0 0 7.69 4.01"><circle class="cls-12" cx="5.91" cy="2.24" r="1.78"/><circle class="cls-13" cx="1.78" cy="1.78" r="1.78"/></symbol><symbol id="New_Symbol_4" data-name="New Symbol 4" viewBox="0 0 2.69 2.69"><circle class="cls-14" cx="1.35" cy="1.35" r="1.35"/></symbol></defs><g id="SARS-CoV-2_showing_gRNA" data-name="SARS-CoV-2 showing gRNA"><g id="BOTTOM"><g id="RED_ELEMENTS" data-name="RED ELEMENTS"><use width="47.8" height="42.99" transform="matrix(0.15, 0.06, 0.06, -0.15, 22.48, 69.79)" xlink:href="#New_Symbol_2"/><use width="47.8" height="42.99" transform="matrix(0.1, 0.12, 0.12, -0.1, 6.96, 56.78)" xlink:href="#New_Symbol_2"/><use width="47.8" height="42.99" transform="matrix(0, 0.16, 0.16, 0, 1.23, 38.49)" xlink:href="#New_Symbol_2"/><use width="47.8" height="42.99" transform="matrix(-0.12, 0.1, 0.1, 0.12, 16.42, 10.38)" xlink:href="#New_Symbol_2"/><use width="47.8" height="42.99" transform="matrix(-0.16, 0.01, 0.01, 0.16, 39.75, 2.94)" xlink:href="#New_Symbol_2"/><use width="47.8" height="42.99" transform="matrix(0.16, 0, 0, -0.16, 35.43, 73.31)" xlink:href="#New_Symbol_2"/></g><g id="SHADE_50" data-name="SHADE 50" class="cls-15"><path class="cls-16" d="M39.14,78.09a.89.89,0,0,0-.08-.32l0-.08a.9.9,0,0,0-.14-.2l-.08-.08a.46.46,0,0,0-.21-.13s0,0-.05,0h0l-.06,0c-.11,0-.12-.09,0-.15a1.19,1.19,0,0,0,.23-.22.56.56,0,0,0,.05-.08,1.36,1.36,0,0,0,.1-.21l0-.09a1,1,0,0,0,0-.34,1.21,1.21,0,0,0-.11-.32l-.06-.08a.85.85,0,0,0-.16-.17l-.07-.06a1.11,1.11,0,0,0-.29-.14c-.11,0-.12-.09,0-.15a1,1,0,0,0,.23-.22.56.56,0,0,0,0-.08.81.81,0,0,0,.1-.21l0-.09a1,1,0,0,0,0-.34,1,1,0,0,0-.12-.32l-.06-.08a.85.85,0,0,0-.16-.17l-.07-.06a1,1,0,0,0-.28-.14c-.11,0-.13-.09,0-.15l0,0s0,0,0,0,0,0,0,0a.4.4,0,0,0,.15-.19l.06-.09a1.09,1.09,0,0,0,.07-.24.24.24,0,0,0,0-.08.93.93,0,0,0,0-.33.21.21,0,0,0,0-.07.62.62,0,0,0-.07-.19s0,0,0,0l0,0a.69.69,0,0,0-.13-.11l-.12-.1a.58.58,0,0,0-.22-.08l-.14,0a1,1,0,0,0-.24,0h-.13a1.11,1.11,0,0,0-.34.18,1,1,0,0,0-.22.25l0,.09a.88.88,0,0,0-.07.23s0,.06,0,.09a1,1,0,0,0,0,.3c0,.12,0,.17-.12.12a1,1,0,0,0-.3-.1h-.09a1,1,0,0,0-.24,0l-.09,0a.87.87,0,0,0-.3.16.72.72,0,0,0-.21.25,1,1,0,0,0-.12.32s0,.06,0,.09A1.06,1.06,0,0,0,35,74c0,.11,0,.16-.12.1a1.71,1.71,0,0,0-.3-.09h-.1a.58.58,0,0,0-.23,0l-.1,0a.89.89,0,0,0-.29.15,1.09,1.09,0,0,0-.22.26.36.36,0,0,0,0,.09.62.62,0,0,0-.07.23.29.29,0,0,0,0,.09.8.8,0,0,0,0,.31c0,.11,0,.16-.13.1l-.06,0,0,0h-.06l-.12,0h-.23a1,1,0,0,0-.25.06l-.08,0a1,1,0,0,0-.27.19l0,.06a.61.61,0,0,0-.12.16.36.36,0,0,0,0,.07l0,0v0a.87.87,0,0,0-.06.32v0a1,1,0,0,0,.07.31.05.05,0,0,0,0,0,1,1,0,0,0,.18.27l0,0a.84.84,0,0,0,.62.24H33a1.1,1.1,0,0,0,.26-.06l.06,0a.74.74,0,0,0,.22-.14.11.11,0,0,1,.2.08,2,2,0,0,0,.07.26l0,.05a.82.82,0,0,0,.16.22l.06.06a.85.85,0,0,0,.61.24h.08a1.31,1.31,0,0,0,.27-.06l0,0a1.18,1.18,0,0,0,.22-.14c.1-.08.19,0,.21.08a.78.78,0,0,0,.07.25s0,0,0,0a.69.69,0,0,0,.16.22l.06.06a.81.81,0,0,0,.61.24h.09a1.22,1.22,0,0,0,.26-.06l0,0a.64.64,0,0,0,.22-.14c.1-.08.19,0,.21.08a.77.77,0,0,0,.07.26s0,0,0,0a1.12,1.12,0,0,0,.16.22l.06.06a.87.87,0,0,0,.63.24h0a1.23,1.23,0,0,0,.32-.07l0,0a.68.68,0,0,0,.26-.18l0,0a1,1,0,0,0,.17-.28s0,0,0,0v0s0,0,0-.07a.71.71,0,0,0,0-.2A.31.31,0,0,0,39.14,78.09Z" transform="translate(-9.24 -6.83)"/><path class="cls-16" d="M24,62.4v-.06a.84.84,0,0,0-.13-.29l0,0a.77.77,0,0,0-.22-.22l0,0a1.17,1.17,0,0,0-.31-.12h0a.89.89,0,0,0-.67.13l-.07.06a.91.91,0,0,0-.17.17l-.06.07a1.39,1.39,0,0,0-.12.28c0,.12-.09.14-.15,0a1,1,0,0,0-.23-.22l-.08,0a.85.85,0,0,0-.22-.09l-.09,0a.83.83,0,0,0-.65.13l-.07.06a.69.69,0,0,0-.17.17l-.06.07a1.48,1.48,0,0,0-.12.29c0,.11-.09.13-.15,0a1,1,0,0,0-.23-.22l-.08,0a.85.85,0,0,0-.22-.09l-.09,0a.87.87,0,0,0-.65.13l-.08.06a.85.85,0,0,0-.16.17l-.06.08a.69.69,0,0,0-.12.29c0,.11-.09.12-.16,0l0,0,0,0s0,0,0,0l-.08-.09L18,62.88l-.1-.05a1.05,1.05,0,0,0-.24-.06l-.09,0a.86.86,0,0,0-.32,0,.15.15,0,0,0-.07,0,.61.61,0,0,0-.18.09s0,0,0,0l-.05,0a.71.71,0,0,0-.1.14l-.1.12a.81.81,0,0,0-.07.22.57.57,0,0,0,0,.14,1.06,1.06,0,0,0,0,.25s0,.08,0,.12a1,1,0,0,0,.19.34,1.05,1.05,0,0,0,.27.2l.08,0a.77.77,0,0,0,.26.07h0a.83.83,0,0,0,.27,0c.12,0,.19.05.15.17a.76.76,0,0,0-.06.26v0a.84.84,0,0,0,0,.27.19.19,0,0,0,0,.08.82.82,0,0,0,.44.49l.08,0a1.11,1.11,0,0,0,.26.07h0A.82.82,0,0,0,19,66c.12,0,.19,0,.15.16a1.31,1.31,0,0,0-.06.27v0a.84.84,0,0,0,0,.27.24.24,0,0,0,0,.08.85.85,0,0,0,.44.49l.08,0a1.1,1.1,0,0,0,.26.06h0a.82.82,0,0,0,.27,0c.12,0,.19,0,.15.16a1.22,1.22,0,0,0-.06.26v.06a.84.84,0,0,0,0,.27.41.41,0,0,0,0,.08.88.88,0,0,0,.48.52l.12,0a.93.93,0,0,0,.24,0l.15,0a.87.87,0,0,0,.22,0,.5.5,0,0,0,.14-.08l.14-.08s0,0,0-.05,0,0,0,0a1,1,0,0,0,.11-.17.16.16,0,0,0,0-.07.72.72,0,0,0,.08-.32V67.9a1.07,1.07,0,0,0,0-.25s0-.07-.05-.1a.56.56,0,0,0,0-.12L22,67.34s0,0,0,0,0,0,0,0l0-.05c-.09-.08-.06-.14,0-.14a1.49,1.49,0,0,0,.3-.09l.08,0a.7.7,0,0,0,.19-.15.23.23,0,0,0,.07-.07,1.22,1.22,0,0,0,.17-.29,1.27,1.27,0,0,0,0-.34s0-.06,0-.09a.86.86,0,0,0-.06-.23.36.36,0,0,0,0-.09.92.92,0,0,0-.19-.25c-.08-.07-.06-.14,0-.14a1,1,0,0,0,.3-.09l.09,0a.65.65,0,0,0,.18-.15.23.23,0,0,0,.07-.07.83.83,0,0,0,.21-.62s0-.07,0-.1a1,1,0,0,0-.07-.23l0-.08a1,1,0,0,0-.19-.25c-.09-.08-.07-.14,0-.15l.07,0h0l0,0,.12,0,.11-.07.09-.05a1.53,1.53,0,0,0,.18-.18l.05-.07a1,1,0,0,0,.13-.3v-.07a1.49,1.49,0,0,0,0-.21Z" transform="translate(-9.24 -6.83)"/><path class="cls-16" d="M16.62,49.83l.08,0a.73.73,0,0,0,.29-.15l.06-.06a.93.93,0,0,0,.14-.14.3.3,0,0,1,0-.08s0,0,0,0v0a.81.81,0,0,0,.1-.31V49a.82.82,0,0,0,0-.31s0,0,0,0a1.32,1.32,0,0,0-.15-.29l0,0a.87.87,0,0,0-.59-.32h-.1l-.24,0-.08,0a1.15,1.15,0,0,0-.27.14c-.1.08-.17.05-.16-.06a.87.87,0,0,0,0-.32l0-.09a2.12,2.12,0,0,0-.11-.21l-.06-.07a.83.83,0,0,0-.58-.32h-.1a.9.9,0,0,0-.23,0l-.1,0a1.17,1.17,0,0,0-.27.15c-.09.07-.15,0-.14-.07a1.06,1.06,0,0,0,0-.31l0-.09a.7.7,0,0,0-.11-.21l-.06-.08a.87.87,0,0,0-.58-.32h-.09l-.24,0-.09,0a.92.92,0,0,0-.28.14c-.09.07-.15,0-.14-.07s0,0,0-.06v0s0,0,0-.06a.49.49,0,0,0,0-.12.61.61,0,0,0,0-.12.3.3,0,0,0,0-.1.8.8,0,0,0-.15-.21l-.05-.06a.9.9,0,0,0-.28-.18l-.07,0a.65.65,0,0,0-.2,0H11.4a.88.88,0,0,0-.32.07l-.05,0a.92.92,0,0,0-.25.19l0,0a1,1,0,0,0-.17.27,0,0,0,0,0,0,0,.86.86,0,0,0,0,.67.59.59,0,0,1,0,.08.94.94,0,0,0,.16.23l0,0a1.14,1.14,0,0,0,.23.15.11.11,0,0,1,.09.13.11.11,0,0,1-.09.09,1.57,1.57,0,0,0-.21.17l0,0a1.14,1.14,0,0,0-.15.23l0,.08a.82.82,0,0,0,0,.65.2.2,0,0,0,0,.08.86.86,0,0,0,.15.22l0,0a1.07,1.07,0,0,0,.22.15.11.11,0,0,1,0,.22.83.83,0,0,0-.21.16s0,0,0,0a.64.64,0,0,0-.14.22.59.59,0,0,0,0,.08,1,1,0,0,0-.05.33h0a1,1,0,0,0,.07.33l0,.08a.82.82,0,0,0,.16.22l0,0a1.07,1.07,0,0,0,.22.15c.11.06.12.16,0,.22a.87.87,0,0,0-.21.17l0,0a1.14,1.14,0,0,0-.15.23s0,0,0,.08a.85.85,0,0,0,0,.68v0a1,1,0,0,0,.19.27l0,0a1.45,1.45,0,0,0,.26.17h0a.87.87,0,0,0,.32.06h.14l.19-.06.07,0a1,1,0,0,0,.27-.19l.05-.07a.74.74,0,0,0,.13-.21c0-.07,0-.15.08-.22v-.12s0,0,0-.06,0,0,0,0v-.06c0-.12,0-.15.13-.09a1.08,1.08,0,0,0,.29.13l.09,0h.34a.86.86,0,0,0,.56-.35.35.35,0,0,0,.05-.08.88.88,0,0,0,.1-.22l0-.09a1.08,1.08,0,0,0,0-.31c0-.11,0-.15.14-.09a.72.72,0,0,0,.28.13l.1,0a.91.91,0,0,0,.23,0H15a.84.84,0,0,0,.56-.35.22.22,0,0,0,0-.08.62.62,0,0,0,.1-.22l0-.09a.81.81,0,0,0,0-.31c0-.11,0-.15.14-.08l0,0,0,0,.06,0,.1.05.13,0a.73.73,0,0,0,.36,0Z" transform="translate(-9.24 -6.83)"/><path class="cls-16" d="M27.59,24.29v0a1,1,0,0,0,0-.35,1.07,1.07,0,0,0-.13-.31l-.06-.08a.91.91,0,0,0-.17-.17l-.07-.05a.7.7,0,0,0-.28-.12c-.11,0-.14-.1,0-.16a1.15,1.15,0,0,0,.22-.22l.05-.09a.85.85,0,0,0,.09-.22.29.29,0,0,0,0-.09.87.87,0,0,0-.12-.65L27,21.68a.91.91,0,0,0-.17-.17l-.07-.06a.81.81,0,0,0-.29-.12c-.11,0-.13-.09,0-.16A.92.92,0,0,0,26.7,21l.05-.08a1,1,0,0,0,.09-.22.36.36,0,0,0,0-.1.85.85,0,0,0-.12-.64l-.06-.08-.17-.17-.08-.05a.9.9,0,0,0-.28-.13c-.12,0-.13-.08,0-.15l0,0,0,0,0-.05a.3.3,0,0,0,.08-.08.24.24,0,0,0,.06-.11l.06-.1a.84.84,0,0,0,.06-.24.19.19,0,0,0,0-.08.75.75,0,0,0,0-.33s0,0,0-.06a.66.66,0,0,0-.09-.19l0,0s0,0,0-.06l-.14-.1-.13-.1a.86.86,0,0,0-.21-.07l-.14,0a1,1,0,0,0-.25,0l-.12,0a.88.88,0,0,0-.34.19.73.73,0,0,0-.2.26.3.3,0,0,0,0,.08.77.77,0,0,0-.07.26.43.43,0,0,1,0,.05.82.82,0,0,0,0,.27c0,.12-.05.19-.16.14a.8.8,0,0,0-.26-.05h-.06a1.24,1.24,0,0,0-.27,0l-.08,0a.92.92,0,0,0-.29.16h0a1.05,1.05,0,0,0-.2.27.59.59,0,0,0,0,.08,1.11,1.11,0,0,0-.07.26.09.09,0,0,1,0,0,1.24,1.24,0,0,0,0,.27c0,.12-.05.19-.17.14a1.1,1.1,0,0,0-.26-.06h-.05a.84.84,0,0,0-.27,0l-.08,0a.87.87,0,0,0-.5.44l0,.07a.9.9,0,0,0-.07.27.43.43,0,0,0,0,.05.82.82,0,0,0,0,.27c0,.12,0,.18-.16.14a.86.86,0,0,0-.27-.05h0a.83.83,0,0,0-.27,0l-.08,0a.75.75,0,0,0-.29.16.87.87,0,0,0-.23.31.53.53,0,0,0,0,.12,1.05,1.05,0,0,0-.06.24c0,.05,0,.1,0,.15a.79.79,0,0,0,.05.22.61.61,0,0,0,.07.14,1,1,0,0,0,.09.15.1.1,0,0,0,.05,0s0,0,0,0a.62.62,0,0,0,.17.11l.06.05a1.16,1.16,0,0,0,.32.08h.08a.52.52,0,0,0,.25,0l.1,0,.12-.05.09-.07.05,0,0,0,.05,0c.08-.08.14-.06.15.05a1.09,1.09,0,0,0,.08.31.35.35,0,0,0,.05.08.85.85,0,0,0,.14.19l.07.07a.92.92,0,0,0,.29.17.93.93,0,0,0,.33,0h.1a.86.86,0,0,0,.23-.06l.09,0a.92.92,0,0,0,.25-.19c.07-.08.14-.06.15,0a.74.74,0,0,0,.08.3.41.41,0,0,0,0,.09.62.62,0,0,0,.14.19l.07.06a.77.77,0,0,0,.29.17,1,1,0,0,0,.33.05H25a1,1,0,0,0,.57-.29c.07-.09.14-.07.14.05s0,0,0,.06v0s0,0,0,.06l0,.11a.41.41,0,0,0,.07.11.31.31,0,0,0,.05.1,1,1,0,0,0,.18.17l.06.06a1.2,1.2,0,0,0,.31.13h.07l.2,0,.08,0h.06a.81.81,0,0,0,.29-.12l0,0a1,1,0,0,0,.23-.22l0,0A1,1,0,0,0,27.59,24.29Z" transform="translate(-9.24 -6.83)"/><path class="cls-16" d="M44.82,15.27c.11,0,.15,0,.09.13l0,.06,0,0s0,0,0,.06a.36.36,0,0,0,0,.11l0,.24a1,1,0,0,0,0,.24s0,.06,0,.08a.85.85,0,0,0,.17.29s0,0,0,0l.15.13.08,0h0a1.09,1.09,0,0,0,.31.08h0a.81.81,0,0,0,.31,0h0a1,1,0,0,0,.28-.17s0,0,0,0a.84.84,0,0,0,.3-.61v-.09a.93.93,0,0,0,0-.24s0-.06,0-.09a1.35,1.35,0,0,0-.15-.26c-.07-.09-.06-.16.06-.16a.84.84,0,0,0,.31-.05l.09,0a.82.82,0,0,0,.2-.12l.07-.06a.9.9,0,0,0,.21-.27,1.32,1.32,0,0,0,.08-.33v-.1a.85.85,0,0,0,0-.23s0-.06,0-.09a1.2,1.2,0,0,0-.16-.27c-.08-.09,0-.15.06-.15a1,1,0,0,0,.31,0l.09,0a.88.88,0,0,0,.21-.12l.07-.06a.83.83,0,0,0,.28-.59.17.17,0,0,0,0-.1.85.85,0,0,0,0-.23l0-.09a.92.92,0,0,0-.16-.27c-.07-.09-.05-.15.07-.15h.11l.06,0h.11l.12,0,.1-.05a.74.74,0,0,0,.19-.16l.07,0A1.18,1.18,0,0,0,49,11.1.17.17,0,0,0,49,11a.71.71,0,0,0,0-.2v-.14a.85.85,0,0,0-.09-.31l0,0a.82.82,0,0,0-.2-.25l0,0a1,1,0,0,0-.29-.16h0a.86.86,0,0,0-.35,0,.9.9,0,0,0-.33.09l-.07,0a.68.68,0,0,0-.21.17l0,0a.83.83,0,0,0-.14.22c-.05.12-.15.12-.22,0a1.12,1.12,0,0,0-.17-.2l-.05,0a1.09,1.09,0,0,0-.23-.14l-.09,0a.73.73,0,0,0-.33,0h0a.9.9,0,0,0-.32.09l-.07,0a.87.87,0,0,0-.21.17s0,0,0,0a.64.64,0,0,0-.14.22c0,.12-.15.13-.22,0a1.12,1.12,0,0,0-.18-.2l0,0a.7.7,0,0,0-.24-.13.11.11,0,0,0-.08,0,.82.82,0,0,0-.65.05l-.08,0a1.57,1.57,0,0,0-.21.17l0,0a1.64,1.64,0,0,0-.14.22c-.05.12-.15.13-.21,0a1.12,1.12,0,0,0-.18-.2l-.05,0a.76.76,0,0,0-.23-.13l-.08,0a.89.89,0,0,0-.68.06h0a1,1,0,0,0-.26.2s0,0,0,0a1,1,0,0,0-.16.28l0,0a.89.89,0,0,0,0,.32v.06a.22.22,0,0,0,0,.08,1.07,1.07,0,0,0,.07.19l0,.07a.75.75,0,0,0,.21.26L42,12a.78.78,0,0,0,.22.12l.1,0a.5.5,0,0,0,.13,0h.18l0,0h.06c.12,0,.15,0,.09.14a1,1,0,0,0-.11.29s0,.06,0,.1a.88.88,0,0,0,0,.23s0,.07,0,.1a.86.86,0,0,0,.37.54l.09,0a.85.85,0,0,0,.22.09l.09,0a.86.86,0,0,0,.32,0c.11,0,.14,0,.09.13a.81.81,0,0,0-.12.29s0,.07,0,.1a1,1,0,0,0,0,.24.29.29,0,0,0,0,.09.83.83,0,0,0,.37.54l.08.05a.92.92,0,0,0,.23.09l.09,0A1,1,0,0,0,44.82,15.27Z" transform="translate(-9.24 -6.83)"/><path class="cls-16" d="M52.2,79.16v-.08a.6.6,0,0,0-.06-.19s0-.06,0-.08a.8.8,0,0,0-.18-.27l-.07-.05a.66.66,0,0,0-.2-.14l-.11,0-.12,0h-.28c-.12,0-.15-.05-.08-.14a1,1,0,0,0,.14-.28s0-.06,0-.1a.87.87,0,0,0,0-.23.31.31,0,0,0,0-.1.92.92,0,0,0-.1-.32,1.07,1.07,0,0,0-.22-.25l-.08,0a.91.91,0,0,0-.22-.11l-.09,0a1.08,1.08,0,0,0-.31,0c-.11,0-.15,0-.08-.14a.79.79,0,0,0,.13-.28.3.3,0,0,0,0-.1.58.58,0,0,0,0-.23.31.31,0,0,0,0-.1.77.77,0,0,0-.33-.57l-.08-.06a1,1,0,0,0-.21-.1l-.09,0a1.08,1.08,0,0,0-.31,0c-.12,0-.15,0-.08-.14l0-.06s0,0,0,0l0-.06a.47.47,0,0,0,0-.1.51.51,0,0,0,0-.13.69.69,0,0,0,0-.35.28.28,0,0,0,0-.09,1.11,1.11,0,0,0-.14-.29l-.06-.06a1,1,0,0,0-.14-.15l-.07,0,0,0h0a1,1,0,0,0-.31-.1h0a.81.81,0,0,0-.31,0h0a1,1,0,0,0-.3.14l0,0a.86.86,0,0,0-.34.59s0,.06,0,.09a1,1,0,0,0,0,.24.29.29,0,0,0,0,.09.68.68,0,0,0,.13.27c.07.1,0,.17-.08.15a1.08,1.08,0,0,0-.31,0l-.09,0a.91.91,0,0,0-.22.11l-.07,0a1,1,0,0,0-.23.26.81.81,0,0,0-.1.31.38.38,0,0,0,0,.1,1,1,0,0,0,0,.24.29.29,0,0,1,0,.09.92.92,0,0,0,.14.28c.07.09,0,.15-.08.14a1.08,1.08,0,0,0-.31,0l-.09,0a.91.91,0,0,0-.22.11l-.08,0a.88.88,0,0,0-.33.57v.1a1,1,0,0,0,0,.24s0,.06,0,.09a.92.92,0,0,0,.14.28c.07.1,0,.15-.08.14h-.28l-.12,0-.11,0a.9.9,0,0,0-.2.14l-.07,0a.8.8,0,0,0-.18.27.24.24,0,0,0,0,.08.7.7,0,0,0-.06.19v.08s0,0,0,0v0a.87.87,0,0,0,.06.32.08.08,0,0,1,0,0,1.27,1.27,0,0,0,.18.27l0,0a1,1,0,0,0,.27.19h0a.82.82,0,0,0,.67,0A.2.2,0,0,0,46,80a1.14,1.14,0,0,0,.23-.15l0,0a1.66,1.66,0,0,0,.16-.21c.05-.11.16-.11.22,0a.78.78,0,0,0,.16.21s0,0,0,0a.74.74,0,0,0,.22.14l.08,0a.84.84,0,0,0,.66,0l.08,0a.74.74,0,0,0,.22-.14l0,0a1.06,1.06,0,0,0,.16-.21c.06-.11.16-.11.22,0a1.06,1.06,0,0,0,.16.21l0,0A.68.68,0,0,0,49,80a.2.2,0,0,0,.08,0,.82.82,0,0,0,.65,0l.08,0a.64.64,0,0,0,.22-.14l0,0a.78.78,0,0,0,.16-.21c.06-.11.16-.11.23,0a1,1,0,0,0,.15.21l.05,0a.83.83,0,0,0,.22.14.2.2,0,0,0,.08,0,1.14,1.14,0,0,0,.33.07h0a1.05,1.05,0,0,0,.34-.08h0a.8.8,0,0,0,.27-.18l0,0a1,1,0,0,0,.18-.26.05.05,0,0,1,0,0,.91.91,0,0,0,.06-.32v0Z" transform="translate(-9.24 -6.83)"/></g><g id="RED_ELEMENTS-2" data-name="RED ELEMENTS-2"><use width="47.8" height="42.99" transform="matrix(-0.19, 0.02, 0.02, 0.19, 43.13, 0.88)" xlink:href="#New_Symbol_2"/><use width="47.8" height="42.99" transform="matrix(0.18, 0.05, 0.05, -0.18, 18.63, 71.06)" xlink:href="#New_Symbol_2"/><use width="47.8" height="42.99" transform="matrix(0.09, 0.17, 0.17, -0.09, 3.32, 52.27)" xlink:href="#New_Symbol_2"/><use width="47.8" height="42.99" transform="matrix(-0.04, 0.19, 0.19, 0.04, 1.65, 25.89)" xlink:href="#New_Symbol_2"/><use width="47.8" height="42.99" transform="matrix(-0.13, 0.14, 0.14, 0.13, 19.5, 7.94)" xlink:href="#New_Symbol_2"/></g><g id="SHADE_45" data-name="SHADE 45" class="cls-17"><path class="cls-16" d="M52.4,9.3A.81.81,0,0,0,52.46,9V9s0,0,0-.06V8.82s0,0,0-.06a.36.36,0,0,0,0-.1.65.65,0,0,0,0-.13.25.25,0,0,0,0-.09l-.06-.11-.06-.09-.08-.09a.23.23,0,0,0-.07-.07L52,8,51.9,8l-.12-.06-.09,0-.15,0-.07,0h-.24a1.18,1.18,0,0,0-.27.06l-.08,0a1.18,1.18,0,0,0-.19.11l0,0a1.14,1.14,0,0,0-.19.19l0,0-.12.2v0a.14.14,0,0,1-.27,0l0,0a.65.65,0,0,0-.15-.18l0,0a1.07,1.07,0,0,0-.22-.15l-.06,0L49.33,8h-.07a1,1,0,0,0-.56.05l-.07,0-.19.1a.1.1,0,0,0,0,0,.9.9,0,0,0-.2.19l0,0a.76.76,0,0,0-.12.19l0,0a.13.13,0,0,1-.16.1.11.11,0,0,1-.1-.08l0,0a1.15,1.15,0,0,0-.14-.17s0,0,0,0a1.18,1.18,0,0,0-.22-.14l-.05,0-.22-.07H47a1.42,1.42,0,0,0-.29,0,.9.9,0,0,0-.27.07l-.08,0-.19.1s0,0-.05,0a1.14,1.14,0,0,0-.19.19l0,0a1.18,1.18,0,0,0-.11.19l0,0a.14.14,0,0,1-.17.1.13.13,0,0,1-.1-.08l0,0a.8.8,0,0,0-.15-.17l0,0a1.64,1.64,0,0,0-.22-.14l-.06,0-.2-.07h-.08a1.32,1.32,0,0,0-.28,0l-.24.05-.07,0L44,8.56l-.07,0-.11.08-.07.07-.09.09-.05.08L43.55,9a1,1,0,0,0,0,.1s0,.08,0,.12a.3.3,0,0,0,0,.1s0,.08,0,.12v.18a.25.25,0,0,0,0,.07v.09a1.48,1.48,0,0,0,.12.29.05.05,0,0,0,0,0,1.37,1.37,0,0,0,.19.23l0,0a1.56,1.56,0,0,0,.25.17l.07,0a1.11,1.11,0,0,0,.3.08h.35c.14,0,.18,0,.11.15h0a1,1,0,0,0-.11.27s0,0,0,.06a1.36,1.36,0,0,0,0,.29h0a.86.86,0,0,0,0,.27.14.14,0,0,0,0,.07,1.13,1.13,0,0,0,.13.27,1.1,1.1,0,0,0,.21.22l.06,0a.84.84,0,0,0,.24.14h0a1,1,0,0,0,.29.07h.06a1,1,0,0,0,.29,0h0c.13,0,.18,0,.11.15h0a1.59,1.59,0,0,0-.12.27s0,0,0,.06a.92.92,0,0,0,0,.29h0a1.28,1.28,0,0,0,.05.27.25.25,0,0,1,0,.07,1,1,0,0,0,.35.49l.06,0a.92.92,0,0,0,.24.13h0a1.27,1.27,0,0,0,.28.06h.06a1.37,1.37,0,0,0,.29,0h0c.14,0,.19,0,.11.16a0,0,0,0,0,0,0,.35.35,0,0,0,0,.08,1.27,1.27,0,0,0-.06.18v0h0a1.63,1.63,0,0,0,0,.31.22.22,0,0,0,0,.08,1.37,1.37,0,0,0,.07.29s0,0,0,0a1.28,1.28,0,0,0,.15.25l0,0a1.5,1.5,0,0,0,.23.2l0,0,0,0,.07,0,.06,0,.1,0,.12,0h.33l.13,0,.09,0,.12-.05.09,0,.11-.07.07-.06a.57.57,0,0,0,.11-.11s0,0,0,0a1.13,1.13,0,0,0,.12-.21,1.52,1.52,0,0,0,.09-.28.22.22,0,0,1,0-.08,1.13,1.13,0,0,0,0-.26v0a2.29,2.29,0,0,0-.08-.28l0-.05a1.18,1.18,0,0,0-.14-.22v0c-.1-.11-.07-.2.06-.19h0a.92.92,0,0,0,.29,0h.06L50,14h0a1,1,0,0,0,.22-.18l0-.06a.82.82,0,0,0,.16-.25,1,1,0,0,0,.09-.29s0-.05,0-.07a1.31,1.31,0,0,0,0-.28h0a1.31,1.31,0,0,0-.09-.28.14.14,0,0,0,0-.06l-.16-.24h0c-.09-.1-.06-.17.08-.17h0a.9.9,0,0,0,.28,0h.06A1.11,1.11,0,0,0,51,12h0a.91.91,0,0,0,.21-.18l0-.06a1.1,1.1,0,0,0,.17-.25,1,1,0,0,0,.08-.29.17.17,0,0,0,0-.07,1.31,1.31,0,0,0,0-.28h0a.9.9,0,0,0-.08-.28l0,0a1.32,1.32,0,0,0-.16-.25h0c-.09-.1-.06-.17.08-.17h.13l.19,0h0A1,1,0,0,0,52,9.89l.06,0a1.1,1.1,0,0,0,.22-.21l0,0a1.35,1.35,0,0,0,.15-.26S52.4,9.31,52.4,9.3Z" transform="translate(-9.24 -6.83)"/><path class="cls-16" d="M37,78.74v0a.94.94,0,0,0-.1-.28s0,0,0,0a1.44,1.44,0,0,0-.18-.25l-.06,0a1.14,1.14,0,0,0-.25-.18h0l-.18-.07H36c-.14,0-.16-.1,0-.19h0a1,1,0,0,0,.2-.21l0-.05a1.19,1.19,0,0,0,.13-.25h0a.87.87,0,0,0,.05-.28v-.07a1,1,0,0,0-.15-.58l0-.06a.91.91,0,0,0-.18-.21h0a1,1,0,0,0-.24-.16l-.06,0a.84.84,0,0,0-.27-.08h0c-.14,0-.16-.11,0-.19h0a1.34,1.34,0,0,0,.2-.21l0,0a.94.94,0,0,0,.14-.26h0a.92.92,0,0,0,.05-.28v-.07a1,1,0,0,0-.15-.58l0-.06a1,1,0,0,0-.18-.22h0a2,2,0,0,0-.24-.16l-.06,0a1.43,1.43,0,0,0-.27-.09h0c-.14,0-.17-.1,0-.18l0-.06,0,0s0,0,0-.06a.94.94,0,0,0,.1-.1.91.91,0,0,0,.07-.14l.06-.12a1.59,1.59,0,0,0,.06-.3s0-.06,0-.1a1.09,1.09,0,0,0-.08-.39.59.59,0,0,1,0-.08,1.13,1.13,0,0,0-.12-.21.23.23,0,0,0-.07-.07v0l0,0a1.23,1.23,0,0,0-.33-.23l0,0a1.16,1.16,0,0,0-.37-.07h0a1.34,1.34,0,0,0-.39.07l0,0a1.16,1.16,0,0,0-.36.23,1.19,1.19,0,0,0-.22.33,1.12,1.12,0,0,0-.1.4.34.34,0,0,0,0,.1,1,1,0,0,0,.06.36c.05.14,0,.21-.13.16a1.17,1.17,0,0,0-.37-.08h-.11a.93.93,0,0,0-.29,0l-.11,0a1,1,0,0,0-.56.55.76.76,0,0,0,0,.11,1.4,1.4,0,0,0-.06.28s0,.08,0,.12a1.21,1.21,0,0,0,.07.37c0,.13,0,.18-.14.13a1.16,1.16,0,0,0-.37-.07h-.11a1.5,1.5,0,0,0-.29.06l-.11,0a1.06,1.06,0,0,0-.56.56.49.49,0,0,0,0,.11,1.27,1.27,0,0,0-.06.28.49.49,0,0,0,0,.12,1.21,1.21,0,0,0,.07.37c.05.12,0,.18-.14.13h0l-.08,0a.58.58,0,0,0-.19,0h0A1.08,1.08,0,0,0,29,76L29,76a1.39,1.39,0,0,0-.28.12l0,0-.22.19,0,0a1,1,0,0,0-.16.26l0,0a.21.21,0,0,1,0,.06s0,0,0,.07a.13.13,0,0,0,0,.06.36.36,0,0,0,0,.11.49.49,0,0,0,0,.12v.11a.5.5,0,0,0,0,.12s0,.07,0,.1a.61.61,0,0,0,0,.12.36.36,0,0,0,0,.09l.07.11a.35.35,0,0,0,.05.08l.09.1.07.06a.57.57,0,0,0,.13.08l.06,0,.22.08a.92.92,0,0,0,.29,0h.07l.22,0h0l.25-.11,0,0a.65.65,0,0,0,.18-.15l0,0c.1-.11.22-.07.25.07s0,0,0,0a.86.86,0,0,0,.07.21s0,0,0,0a1.77,1.77,0,0,0,.16.22l0,0,.17.14.07,0a.85.85,0,0,0,.26.11.86.86,0,0,0,.28,0h.07a.78.78,0,0,0,.22,0h.06l.25-.11,0,0a.65.65,0,0,0,.18-.15l0,0c.1-.11.22-.07.26.07s0,0,0,0a.76.76,0,0,0,.08.21s0,0,0,0a1.07,1.07,0,0,0,.15.22l0,0a1.07,1.07,0,0,0,.16.14l.07,0a1.23,1.23,0,0,0,.26.12,1.33,1.33,0,0,0,.28,0h.08a.76.76,0,0,0,.21,0H34a1.12,1.12,0,0,0,.25-.11l0,0a1.19,1.19,0,0,0,.18-.15l0,0c.11-.11.23-.07.26.07s0,0,0,0a2,2,0,0,0,.08.22s0,0,0,0a.82.82,0,0,0,.16.22.08.08,0,0,0,0,0,.75.75,0,0,0,.17.14l.06,0a1.23,1.23,0,0,0,.26.12l.24,0H36l.08,0,.14,0,.08,0,.12,0,.08-.06.1-.08.07-.07.08-.1.06-.09.06-.11,0-.1,0-.06s0,0,0-.07a.14.14,0,0,1,0-.06v0A1.22,1.22,0,0,0,37,78.74Z" transform="translate(-9.24 -6.83)"/><path class="cls-16" d="M22,59.78a.34.34,0,0,0,0-.1.51.51,0,0,0,0-.13l0-.1s0-.08,0-.12l-.05-.09-.07-.1-.06-.08-.1-.09-.07-.06-.12-.07-.07-.05-.15,0-.07,0a1,1,0,0,0-.24,0,1,1,0,0,0-.29,0l-.08,0a1.22,1.22,0,0,0-.24.1s0,0,0,0a1.24,1.24,0,0,0-.22.18l0,0a1,1,0,0,0-.15.21v0c-.06.13-.15.14-.2,0h0a1.28,1.28,0,0,0-.15-.25l0-.05a1.34,1.34,0,0,0-.21-.2h0a.85.85,0,0,0-.25-.13l-.07,0a1,1,0,0,0-.3,0,1,1,0,0,0-.3,0l-.07,0a1.19,1.19,0,0,0-.26.11h0a1.37,1.37,0,0,0-.23.19l0,0-.16.24h0c-.06.13-.14.12-.19,0h0a1.48,1.48,0,0,0-.14-.25l0,0a1,1,0,0,0-.21-.21h0a1.19,1.19,0,0,0-.25-.13l-.07,0a.92.92,0,0,0-.59,0H16a1.15,1.15,0,0,0-.25.12h0a1,1,0,0,0-.22.18l0,0a.78.78,0,0,0-.16.24h0c-.06.12-.14.13-.2,0l0,0s0-.06,0-.08a.91.91,0,0,0-.11-.16,0,0,0,0,0,0,0h0a1.21,1.21,0,0,0-.24-.21l-.05,0a1.08,1.08,0,0,0-.29-.13h0a1.36,1.36,0,0,0-.29,0H14a1.09,1.09,0,0,0-.3.07h0l0,0-.07,0-.05,0-.09.06-.1.08-.07.07-.08.1a.41.41,0,0,0-.05.09.39.39,0,0,0-.06.11l0,.09,0,.13a.29.29,0,0,0,0,.09.66.66,0,0,0,0,.14.27.27,0,0,0,0,.09.77.77,0,0,0,0,.15s0,.05,0,.07a1.43,1.43,0,0,0,.08.22,1.24,1.24,0,0,0,.17.23l.06.06a.76.76,0,0,0,.17.13l0,0a1.12,1.12,0,0,0,.25.11h0a.91.91,0,0,0,.23,0h0c.15,0,.21.11.12.24l0,0a1,1,0,0,0-.1.21l0,0a2.38,2.38,0,0,0-.05.26v.07a.75.75,0,0,0,0,.21.22.22,0,0,0,0,.08,1,1,0,0,0,.26.49l.06.06a1.09,1.09,0,0,0,.17.13l0,0a1.09,1.09,0,0,0,.25.1h.05a.83.83,0,0,0,.22,0h0c.15,0,.21.11.13.23l0,0a1,1,0,0,0-.1.21l0,0a1.31,1.31,0,0,0-.06.27v.06a1.8,1.8,0,0,0,0,.22s0,.05,0,.07.06.18.1.27a1.24,1.24,0,0,0,.17.23l0,0,.17.14.05,0a1.3,1.3,0,0,0,.25.1H16a.91.91,0,0,0,.23,0h0c.14,0,.2.11.12.23l0,0a2,2,0,0,0-.1.21s0,0,0,0a1.28,1.28,0,0,0-.05.27v.06a1.62,1.62,0,0,0,0,.22.19.19,0,0,0,0,.07,1,1,0,0,0,.1.27,1.13,1.13,0,0,0,.13.2s0,0,0,0l.11.11.08.05.11.07.09,0,.12,0,.1,0,.13,0h.22l.11,0,.12,0,.1,0,.06,0,.06,0,.05,0,0,0a1.52,1.52,0,0,0,.22-.22s0,0,0,0a.89.89,0,0,0,.14-.25s0,0,0,0a1.06,1.06,0,0,0,.05-.31v-.07a1.1,1.1,0,0,0,0-.31h0a0,0,0,0,1,0,0,1.42,1.42,0,0,0-.08-.18.43.43,0,0,1,0-.07s0,0,0,0,0-.18.1-.16h.35a.9.9,0,0,0,.28-.08h0a1.14,1.14,0,0,0,.23-.15l.06,0a1.06,1.06,0,0,0,.32-.5.19.19,0,0,1,0-.07,1.41,1.41,0,0,0,0-.28h0a1.35,1.35,0,0,0-.05-.29s0,0,0-.06a1.26,1.26,0,0,0-.13-.26h0c-.08-.11,0-.18.1-.16h.35a.9.9,0,0,0,.28-.08h0a1,1,0,0,0,.24-.15s0,0,.05-.05a1.1,1.1,0,0,0,.2-.23,1.31,1.31,0,0,0,.12-.27s0,0,0-.08a1.27,1.27,0,0,0,0-.28h0a1,1,0,0,0-.05-.29s0,0,0,0a.91.91,0,0,0-.13-.26h0c-.07-.12,0-.19.11-.17h0l.08,0,.19,0h0a1,1,0,0,0,.3-.09l.06,0a1,1,0,0,0,.25-.19l0,0a.91.91,0,0,0,.17-.23l0,0A1.71,1.71,0,0,0,22,60s0,0,0,0v-.06s0,0,0-.08S22,59.81,22,59.78Z" transform="translate(-9.24 -6.83)"/><path class="cls-16" d="M13.15,41l.06,0a1,1,0,0,0,.21-.19h0a1.28,1.28,0,0,0,.15-.25l0-.06a.89.89,0,0,0,.07-.28h0c0-.14.09-.16.18-.06h0a1.45,1.45,0,0,0,.23.19l0,0a1.23,1.23,0,0,0,.26.12h0a1.33,1.33,0,0,0,.28,0h.08a1,1,0,0,0,.56-.19l.06,0a.73.73,0,0,0,.2-.19h0a1.28,1.28,0,0,0,.15-.25l0-.06a1.28,1.28,0,0,0,.07-.28h0c0-.14.08-.17.18-.06l.06,0,0,0,.06,0,.11.09a1.42,1.42,0,0,0,.57.15h.1a1.24,1.24,0,0,0,.38-.09l.08-.05.21-.13.06-.08,0,0,0,0A1,1,0,0,0,17.9,39a.08.08,0,0,0,0,0,1,1,0,0,0,0-.38v0a1,1,0,0,0-.1-.38v0a1.23,1.23,0,0,0-.26-.34,1.13,1.13,0,0,0-.35-.21l-.11,0a1.35,1.35,0,0,0-.29,0h-.11a1.06,1.06,0,0,0-.35.09c-.13,0-.2,0-.16-.12a1.2,1.2,0,0,0,.05-.38s0-.07,0-.11a1.29,1.29,0,0,0-.08-.28s0-.07,0-.11a1,1,0,0,0-.6-.53l-.11,0a1.35,1.35,0,0,0-.28,0H15a1.18,1.18,0,0,0-.37.09c-.12.06-.18,0-.14-.12a1.24,1.24,0,0,0,.05-.38s0-.07,0-.11a1.38,1.38,0,0,0-.08-.29.42.42,0,0,0,0-.1,1,1,0,0,0-.24-.33,1.13,1.13,0,0,0-.35-.2l-.12,0a1.27,1.27,0,0,0-.28,0h-.12a1.12,1.12,0,0,0-.36.09c-.13.06-.19,0-.15-.13s0,0,0,0l0-.08a1.23,1.23,0,0,0,0-.19v0h0a1.06,1.06,0,0,0,0-.31.25.25,0,0,1,0-.07,1.47,1.47,0,0,0-.14-.28l0,0a1.34,1.34,0,0,0-.2-.21l0,0a1.43,1.43,0,0,0-.27-.15h-.09l-.07,0h-.4l-.13,0-.09,0-.12,0-.09.05-.1.07-.08.06-.09.1-.06.07s-.05.09-.07.14l0,.06a1.13,1.13,0,0,0-.09.51.22.22,0,0,0,0,.08,1.55,1.55,0,0,0,0,.21s0,0,0,.06a1.41,1.41,0,0,0,.13.24l0,0a.61.61,0,0,0,.15.17l0,0c.11.1.09.22-.06.26h0l-.21.1,0,0a1.2,1.2,0,0,0-.21.17.1.1,0,0,0,0,.05,1.09,1.09,0,0,0-.13.17.16.16,0,0,1,0,.07,1.43,1.43,0,0,0-.09.27.88.88,0,0,0,0,.28.22.22,0,0,0,0,.08.78.78,0,0,0,0,.21l0,.06a1.34,1.34,0,0,0,.12.24l0,0a.87.87,0,0,0,.16.17l0,0c.11.1.09.22-.06.26h0a1.36,1.36,0,0,0-.21.1l0,0a1.18,1.18,0,0,0-.22.17l0,0a.75.75,0,0,0-.13.18.43.43,0,0,1,0,.07,1,1,0,0,0-.11.55v.08a1.6,1.6,0,0,0,0,.21s0,0,0,.06a1.34,1.34,0,0,0,.12.24l0,0a.87.87,0,0,0,.16.17l0,0c.12.1.09.22,0,.26h0l-.22.1,0,0a1.57,1.57,0,0,0-.21.17l0,0a1,1,0,0,0-.12.17l0,.07a1.48,1.48,0,0,0-.1.27,1.94,1.94,0,0,0,0,.24s0,.05,0,.07a.77.77,0,0,0,0,.15.29.29,0,0,0,0,.09s0,.08,0,.13l.05.08a.41.41,0,0,0,.07.11s0,0,.06.08l.08.09.08.07.1.07.09,0,.12.05a.29.29,0,0,0,.1,0l.06,0h.17a1.08,1.08,0,0,0,.31,0h0a1.69,1.69,0,0,0,.27-.11l0,0a1.16,1.16,0,0,0,.24-.2l0,0a1.11,1.11,0,0,0,.17-.27h0v0a.64.64,0,0,0,.06-.18.28.28,0,0,0,0-.09v0c0-.14.09-.16.18-.06h0a1.3,1.3,0,0,0,.22.19L12,41a1.23,1.23,0,0,0,.26.12h0a1.33,1.33,0,0,0,.28,0h.07a1,1,0,0,0,.3-.05A.84.84,0,0,0,13.15,41Z" transform="translate(-9.24 -6.83)"/><path class="cls-16" d="M27.91,23.19a1.37,1.37,0,0,0,.23.17l.06,0a1,1,0,0,0,.28.11,1,1,0,0,0,.3,0h.08a1.31,1.31,0,0,0,.27-.06h0a1.28,1.28,0,0,0,.25-.15l.05,0a1.34,1.34,0,0,0,.2-.21h0c.08-.11.16-.1.19,0s0,0,0,0a.19.19,0,0,0,0,.08,1.34,1.34,0,0,0,.07.18,0,0,0,0,1,0,0h0a1.5,1.5,0,0,0,.19.25l.06,0a1.14,1.14,0,0,0,.25.18h0a1,1,0,0,0,.28.08h0a1.08,1.08,0,0,0,.31,0h0l.06,0,.07,0,.06,0,.1-.05a.39.39,0,0,0,.11-.06l.09-.06.09-.08.07-.08a.61.61,0,0,0,.07-.1l.06-.08.05-.12,0-.09a.31.31,0,0,0,0-.13.29.29,0,0,0,0-.09v-.23a1.12,1.12,0,0,0-.18-.5l0-.06a1.09,1.09,0,0,0-.18-.19l0,0a1.28,1.28,0,0,0-.25-.15l-.05,0-.26-.07h0c-.14,0-.18-.09-.08-.19h0a.79.79,0,0,0,.19-.22l0,0a1.11,1.11,0,0,0,.12-.27h0a1.45,1.45,0,0,0,0-.28v-.08a1.35,1.35,0,0,0-.05-.29h0a1.15,1.15,0,0,0-.14-.27l0-.06a1.29,1.29,0,0,0-.19-.21h0a1.28,1.28,0,0,0-.25-.15l-.05,0a.89.89,0,0,0-.28-.07h0c-.13,0-.16-.09-.06-.19h0a.79.79,0,0,0,.19-.22l0-.05a1.11,1.11,0,0,0,.12-.27h0a1.35,1.35,0,0,0,0-.28v-.08a1.35,1.35,0,0,0-.05-.29.87.87,0,0,0-.14-.27l0-.06a1.29,1.29,0,0,0-.19-.21h0a1.28,1.28,0,0,0-.25-.15l-.06,0a.89.89,0,0,0-.28-.07h0c-.13,0-.16-.09-.06-.18l.05-.06,0,0a.25.25,0,0,1,0-.07l.09-.11.06-.14a.61.61,0,0,0,.05-.12,1,1,0,0,0,0-.3s0-.07,0-.1a1,1,0,0,0-.1-.38.35.35,0,0,0-.05-.08.92.92,0,0,0-.13-.21l-.07-.06,0,0,0,0a1.05,1.05,0,0,0-.34-.2l-.05,0a1.24,1.24,0,0,0-.38-.05h-.05a1,1,0,0,0-.38.09l0,0a1,1,0,0,0-.55.6l0,.1a1.13,1.13,0,0,0-.05.32v.07a1.16,1.16,0,0,0,.07.31c0,.14,0,.23-.18.2a.85.85,0,0,0-.32,0h-.06a1.14,1.14,0,0,0-.32.07l-.1,0a1,1,0,0,0-.52.58l0,.1a1.24,1.24,0,0,0,0,.33s0,0,0,.06a1.13,1.13,0,0,0,.06.32c0,.14,0,.23-.17.19a1.84,1.84,0,0,0-.33,0H25.7a1.16,1.16,0,0,0-.32.08l-.09,0A1.08,1.08,0,0,0,25,19a1.25,1.25,0,0,0-.21.35l0,.1a1.13,1.13,0,0,0-.05.32v.07a1.08,1.08,0,0,0,.07.31c.05.14,0,.24-.18.2a.85.85,0,0,0-.32,0h-.07a1.18,1.18,0,0,0-.31.08l-.1,0a1.05,1.05,0,0,0-.54.61s0,0,0,0a1.23,1.23,0,0,0-.06.39v.05a1.2,1.2,0,0,0,.1.37l0,.05a1.24,1.24,0,0,0,.23.32l0,0,0,0,.08.07a.88.88,0,0,0,.22.1s.05,0,.08,0a1.06,1.06,0,0,0,.39.06l.1,0a.83.83,0,0,0,.41-.13l.14-.08a.94.94,0,0,0,.1-.1s0,0,.06,0l0-.05.06-.05c.08-.12.15-.1.18,0h0a1.48,1.48,0,0,0,.1.27l0,0a1,1,0,0,0,.17.24h0a1,1,0,0,0,.22.18l.06,0a1,1,0,0,0,.59.13h.07a.83.83,0,0,0,.27-.07h0a.77.77,0,0,0,.25-.14l.05,0a1,1,0,0,0,.2-.21h0c.08-.11.16-.1.19,0h0a.88.88,0,0,0,.1.27l0,.05a.81.81,0,0,0,.17.24Z" transform="translate(-9.24 -6.83)"/></g></g><g id="CENTRE"><path class="cls-18" d="M38.44,45.29C38.44,29,44.6,15.74,52.2,15.74a6.45,6.45,0,0,1,1.63.21,30.27,30.27,0,1,0,0,58.68,6.53,6.53,0,0,1-1.64.21C44.6,74.84,38.44,61.61,38.44,45.29Z" transform="translate(-9.24 -6.83)"/><path class="cls-19" d="M66,45.29C66,30.2,60.69,17.75,53.89,16h-.06a6.39,6.39,0,0,0-1.63-.21c-7.6,0-13.76,13.23-13.76,29.55S44.6,74.84,52.2,74.84a6.47,6.47,0,0,0,1.64-.21h0C60.69,72.84,66,60.39,66,45.29Z" transform="translate(-9.24 -6.83)"/><path class="cls-20" d="M66,45.29C66,30.2,60.69,17.75,53.89,16h-.06a6.39,6.39,0,0,0-1.63-.21c-7.6,0-13.76,13.23-13.76,29.55S44.6,74.84,52.2,74.84a6.47,6.47,0,0,0,1.64-.21h0C60.69,72.84,66,60.39,66,45.29Z" transform="translate(-9.24 -6.83)"/><path class="cls-21" d="M63.76,45.29c0-13.68-4.43-25-10.14-26.6h0a5.33,5.33,0,0,0-1.37-.19c-6.39,0-11.56,12-11.56,26.8s5.17,26.8,11.56,26.8a5,5,0,0,0,1.38-.19h0C59.33,70.27,63.76,59,63.76,45.29Z" transform="translate(-9.24 -6.83)"/></g><g id="gRNA"><g id="BOTTOM-2"><path class="cls-22" d="M48.66,45.86a.41.41,0,0,0,.24-.15,1,1,0,0,0,.19-.27,5.55,5.55,0,0,0,.31-.95c.2-.76.39-1.78.68-2.79a4.85,4.85,0,0,1,1.51-2.62,2.88,2.88,0,0,1,1.51-.56,4.17,4.17,0,0,1,2.08.52,11.66,11.66,0,0,1,1.13.68,2,2,0,0,0-2.56.05A8.8,8.8,0,0,0,52,42.1c-.52.9-1,1.84-1.5,2.5a3.91,3.91,0,0,1-.68.83,1.11,1.11,0,0,1-.7.36A2,2,0,0,0,48.66,45.86Z" transform="translate(-9.24 -6.83)"/><path class="cls-23" d="M53.68,48.6a.78.78,0,0,0,.61.39,3.41,3.41,0,0,0,1,0c.81-.07,1.82-.3,2.85-.42a5.39,5.39,0,0,1,3,.25,2.6,2.6,0,0,1,1.14,1,3.85,3.85,0,0,1,.37.86,5.11,5.11,0,0,1,.13,1.11c0,.42,0,.85,0,1.27A2,2,0,0,0,61.48,51a9.19,9.19,0,0,0-2.89-.5,23.86,23.86,0,0,1-2.92-.29,4.12,4.12,0,0,1-1.07-.37A1.6,1.6,0,0,1,54,49.1C53.85,48.94,53.78,48.76,53.68,48.6Z" transform="translate(-9.24 -6.83)"/><path class="cls-24" d="M53.69,55.16a.83.83,0,0,0-.06.75,3,3,0,0,0,.48.9c.46.66,1.18,1.44,1.82,2.25,1.28,1.59,2.38,3.66,0,5.54l-.94.67c1.73-1.2.57-3-.48-4.84a14.21,14.21,0,0,1-1.32-2.61,3,3,0,0,1-.2-1.16,1.7,1.7,0,0,1,.33-1C53.47,55.5,53.58,55.33,53.69,55.16Z" transform="translate(-9.24 -6.83)"/><path class="cls-25" d="M46.32,32.32c1.24-.15,1.31-2.17,1.67-4.24a6.52,6.52,0,0,1,1-2.82,2.87,2.87,0,0,1,2.89-1,8.08,8.08,0,0,1,1.08.17,1.85,1.85,0,0,0-2,1,11,11,0,0,0-1,2.74,12.45,12.45,0,0,1-1,2.77,3.45,3.45,0,0,1-.77.93,2.36,2.36,0,0,1-1.11.42Z" transform="translate(-9.24 -6.83)"/><path class="cls-26" d="M55.12,33.55c1.2.5,2.28-1.18,3.63-2.8A6.56,6.56,0,0,1,61,28.8a2.89,2.89,0,0,1,1.42-.21,3.67,3.67,0,0,1,1.6.71c.3.21.57.46.85.69a1.82,1.82,0,0,0-2.26-.13,11.76,11.76,0,0,0-2.22,1.88,12.22,12.22,0,0,1-2.26,1.92,2.41,2.41,0,0,1-2.35.19Z" transform="translate(-9.24 -6.83)"/><path class="cls-27" d="M62.21,39a1.06,1.06,0,0,0,.75.42,2.61,2.61,0,0,0,1-.08c.79-.18,1.75-.58,2.75-.92a6.19,6.19,0,0,1,3-.45,2.63,2.63,0,0,1,1.33.59,4,4,0,0,1,1,1.51l.33,1.08a1.79,1.79,0,0,0-.7-1,2.29,2.29,0,0,0-1.14-.36,11.23,11.23,0,0,0-2.88.39,13.82,13.82,0,0,1-2.93.43,3.13,3.13,0,0,1-1.17-.23,1.85,1.85,0,0,1-.89-.77Z" transform="translate(-9.24 -6.83)"/><path class="cls-28" d="M65,47a1,1,0,0,0,.37.77,2.82,2.82,0,0,0,.89.55c.75.31,1.76.54,2.76.84a6.4,6.4,0,0,1,2.68,1.34,2.86,2.86,0,0,1,.69,3l-.28,1c.5-1.9-1.41-2.65-3.36-3.46S65,49.48,65.06,47.74Z" transform="translate(-9.24 -6.83)"/><path class="cls-29" d="M47.5,59.8a2.45,2.45,0,0,1-.61.13,2,2,0,0,0-.93.47,3.08,3.08,0,0,0-.67,1,16.73,16.73,0,0,0-1,2.76c0,.16-.09.32-.14.48a23.71,23.71,0,0,0,1.18,2.3,6,6,0,0,0,.9-2.77C46.53,62.08,46.46,60,47.5,59.8Z" transform="translate(-9.24 -6.83)"/></g><g id="TOP"><path class="cls-30" d="M42.52,41.3a9.26,9.26,0,0,1,2.25,1.84,22.51,22.51,0,0,0,2.14,2,4.28,4.28,0,0,0,.92.6,3.38,3.38,0,0,0,.42.13,1.88,1.88,0,0,0,.41,0,2,2,0,0,1,.43-.07.67.67,0,0,1-.54-.27,7.5,7.5,0,0,1-.58-.81c-.41-.67-.89-1.61-1.44-2.49a5.31,5.31,0,0,0-2.16-2.12,3,3,0,0,0-1.56-.16,3.41,3.41,0,0,0-.88.31,3.92,3.92,0,0,0-.91.61l-.24.22c0,.05,0,.1,0,.15A1.9,1.9,0,0,1,42.52,41.3Z" transform="translate(-9.24 -6.83)"/><path class="cls-31" d="M54,49.1c-.44-.86,1.12-2.11,2.51-3.69a5.5,5.5,0,0,0,1.46-2.63,2.48,2.48,0,0,0-.23-1.54,2.73,2.73,0,0,0-.52-.78,3.63,3.63,0,0,0-.87-.74A11.66,11.66,0,0,0,55.17,39,2,2,0,0,1,56.3,41.3,8.85,8.85,0,0,1,55.1,44a22.73,22.73,0,0,0-1.37,2.58,3.5,3.5,0,0,0-.28,1.1,1.34,1.34,0,0,0,0,.49,1.14,1.14,0,0,0,.19.47C53.78,48.76,53.85,48.94,54,49.1Z" transform="translate(-9.24 -6.83)"/><path class="cls-32" d="M53.37,55.67c.28-.45.89-.45,1.66-.32s1.79.44,2.82.66a5.59,5.59,0,0,0,3,0,3.14,3.14,0,0,0,1.88-2.87c0-.43.07-.85,0-1.28a2,2,0,0,1-1.43,2,8.9,8.9,0,0,1-2.91.24,20.51,20.51,0,0,0-2.93.06,3.53,3.53,0,0,0-1.1.3,2.36,2.36,0,0,0-.42.28,2.15,2.15,0,0,0-.32.41Z" transform="translate(-9.24 -6.83)"/><path class="cls-33" d="M46.89,59.93a.73.73,0,0,1,.39,0,1,1,0,0,1,.36.16,3.11,3.11,0,0,1,.68.77c.46.67.94,1.62,1.47,2.49a5.88,5.88,0,0,0,2,2.21,2.5,2.5,0,0,0,.7.28,2.75,2.75,0,0,0,.76,0,3.07,3.07,0,0,0,.85-.18,3,3,0,0,0,.92-.47L56,64.6c-1.69,1.25-3.07-.45-4.39-2-.33-.4-.66-.8-1-1.16a9.26,9.26,0,0,0-1-1,2.92,2.92,0,0,0-1-.59l-.25-.05-.26,0a1.75,1.75,0,0,0-.56.06A2.45,2.45,0,0,1,46.89,59.93Z" transform="translate(-9.24 -6.83)"/><path class="cls-34" d="M55.8,33.85c-1.19-.54-.65-2.49-.35-4.57a6.71,6.71,0,0,0-.08-3,2.88,2.88,0,0,0-2.4-1.9,8.08,8.08,0,0,0-1.08-.17,1.67,1.67,0,0,1,1.1.53,2.38,2.38,0,0,1,.5,1.05,11.8,11.8,0,0,1,0,2.91,11.67,11.67,0,0,0,.11,2.95,3.25,3.25,0,0,0,.48,1.13,2.38,2.38,0,0,0,1,.76Z" transform="translate(-9.24 -6.83)"/><path class="cls-35" d="M62.64,39.56c-.38-.51-.18-1.11.25-1.81S64,36.3,64.64,35.47a6.56,6.56,0,0,0,1.42-2.65,2.76,2.76,0,0,0-.12-1.42,3.2,3.2,0,0,0-1-1.41c-.28-.23-.55-.48-.85-.69,1.53,1.24.35,3-.77,4.73a11.64,11.64,0,0,0-1.36,2.62,3.31,3.31,0,0,0-.16,1.21A2.45,2.45,0,0,0,62.21,39Z" transform="translate(-9.24 -6.83)"/><path class="cls-36" d="M65.06,47.74c0-.63.49-1,1.26-1.32s1.74-.54,2.73-.84a6.56,6.56,0,0,0,2.69-1.37,2.67,2.67,0,0,0,.7-1.26,3.93,3.93,0,0,0,.09-.84,4,4,0,0,0-.18-1L72,40.07a1.88,1.88,0,0,1-.67,2.19,11.43,11.43,0,0,1-2.59,1.36A12.62,12.62,0,0,0,66.15,45a3.06,3.06,0,0,0-.83.89A2.37,2.37,0,0,0,65,47Z" transform="translate(-9.24 -6.83)"/><path class="cls-37" d="M46.32,32.32l.71-.07a1.07,1.07,0,0,1-.82-.27,2.84,2.84,0,0,1-.64-.82c-.4-.71-.75-1.69-1.17-2.65a9.93,9.93,0,0,0-.7-1.38c-.31.78-.61,1.61-.88,2.48a10.29,10.29,0,0,0,1.34,1.87A2.34,2.34,0,0,0,46.32,32.32Z" transform="translate(-9.24 -6.83)"/></g><g id="gRNA_coating" data-name="gRNA coating"><circle class="cls-38" cx="39.61" cy="38.9" r="2.38"/><circle class="cls-39" cx="46.46" cy="32.58" r="2.38"/><circle class="cls-40" cx="44.63" cy="41.99" r="2.38"/><circle class="cls-41" cx="53.48" cy="45.65" r="2.38"/><circle class="cls-42" cx="44.36" cy="48.61" r="2.38"/><circle class="cls-43" cx="46.26" cy="58.05" r="2.38"/><circle class="cls-44" cx="37.95" cy="53.13" r="2.38"/><circle class="cls-45" cx="37.41" cy="25.38" r="2.38"/><circle class="cls-46" cx="43.17" cy="17.55" r="2.38"/><circle class="cls-47" cx="46.27" cy="26.79" r="2.38"/><circle class="cls-48" cx="55.17" cy="22.85" r="2.38"/><circle class="cls-49" cx="53.26" cy="32.41" r="2.38"/><circle class="cls-50" cx="62.89" cy="33.82" r="2.38"/><circle class="cls-51" cx="55.94" cy="40.58" r="2.38"/><circle class="cls-52" cx="62.92" cy="47.73" r="2.38"/><path class="cls-53" d="M42.51,41.69a2.38,2.38,0,0,0-1.6-2.24c-.14,1.48-.23,3-.26,4.56A2.39,2.39,0,0,0,42.51,41.69Z" transform="translate(-9.24 -6.83)"/></g></g><path id="SHADOW" class="cls-54" d="M63.76,45.29c0-13.68-4.43-25-10.14-26.6h0a5.33,5.33,0,0,0-1.37-.19c-6.39,0-11.56,12-11.56,26.8s5.17,26.8,11.56,26.8a5,5,0,0,0,1.38-.19h0C59.33,70.27,63.76,59,63.76,45.29Z" transform="translate(-9.24 -6.83)"/><g id="TOP-2"><g id="ORANGE"><use width="7.69" height="4.01" transform="matrix(0.51, -0.44, -0.44, -0.51, 19.47, 36.71)" xlink:href="#New_Symbol_3"/><use width="7.69" height="4.01" transform="matrix(0.09, -0.67, -0.67, -0.09, 15.9, 44.34)" xlink:href="#New_Symbol_3"/><use width="7.69" height="4.01" transform="matrix(0.65, 0.18, 0.18, -0.65, 17.76, 22.97)" xlink:href="#New_Symbol_3"/><use width="7.69" height="4.01" transform="matrix(0.58, 0.35, 0.35, -0.58, 15.65, 58.6)" xlink:href="#New_Symbol_3"/><use width="7.69" height="4.01" transform="matrix(0.44, 0.27, 0.27, -0.44, 26.51, 64.77)" xlink:href="#New_Symbol_3"/><use width="7.69" height="4.01" transform="matrix(0.44, -0.28, -0.28, -0.44, 19.57, 16.54)" xlink:href="#New_Symbol_3"/></g><g id="YELLOW"><use width="2.69" height="2.69" transform="matrix(0.79, 0, 0, -0.79, 29.67, 15.29)" xlink:href="#New_Symbol_4"/><use width="2.69" height="2.69" transform="matrix(0.79, 0, 0, -0.79, 17.89, 55.3)" xlink:href="#New_Symbol_4"/></g><g id="RED_ELEMENTS-3" data-name="RED ELEMENTS-3"><use width="47.8" height="42.99" transform="matrix(0.19, 0, 0, -0.19, 27.3, 74.09)" xlink:href="#New_Symbol_2"/><use width="47.8" height="42.99" transform="matrix(0.16, 0.1, 0.1, -0.16, 7.17, 62.44)" xlink:href="#New_Symbol_2"/><use width="47.8" height="42.99" transform="matrix(0.04, 0.19, 0.19, -0.04, 1.68, 42.52)" xlink:href="#New_Symbol_2"/><use width="47.8" height="42.99" transform="matrix(-0.06, 0.18, 0.18, 0.06, 4.93, 19.99)" xlink:href="#New_Symbol_2"/><use width="47.8" height="42.99" transform="matrix(-0.07, -0.18, -0.18, 0.07, 15.61, 19.38)" xlink:href="#New_Symbol_2"/><use width="47.8" height="42.99" transform="matrix(0.01, -0.19, -0.19, -0.01, 24.6, 11.72)" xlink:href="#New_Symbol_2"/><use width="47.8" height="42.99" transform="matrix(0.17, -0.09, -0.09, -0.17, 42.48, 9.47)" xlink:href="#New_Symbol_2"/></g><g id="SHADE_30" data-name="SHADE 30" class="cls-55"><path class="cls-16" d="M45.58,79.49v-.07s0,0,0,0a1,1,0,0,0-.1-.29.05.05,0,0,0,0,0,1,1,0,0,0-.17-.24l0,0A.88.88,0,0,0,45,78.6l-.07,0a1,1,0,0,0-.29-.1h0l-.19,0H44.3c-.14,0-.18,0-.1-.16h0a.91.91,0,0,0,.13-.26s0,0,0-.06a.92.92,0,0,0,0-.28h0a.88.88,0,0,0,0-.28.19.19,0,0,1,0-.07,1,1,0,0,0-.31-.51l-.06,0a1.88,1.88,0,0,0-.23-.16h0a.9.9,0,0,0-.28-.08h-.06a.71.71,0,0,0-.29,0h0c-.13,0-.18,0-.1-.17h0a.79.79,0,0,0,.13-.26.08.08,0,0,0,0,0,1.5,1.5,0,0,0,.06-.29h0a1.33,1.33,0,0,0,0-.28.14.14,0,0,1,0-.07,1.39,1.39,0,0,0-.12-.28,1.37,1.37,0,0,0-.19-.23l-.06,0a1.14,1.14,0,0,0-.23-.15h0a.9.9,0,0,0-.28-.08h-.06a1.4,1.4,0,0,0-.29,0h0c-.13,0-.18,0-.1-.16s0,0,0,0a.18.18,0,0,0,0-.07,1.34,1.34,0,0,0,.07-.18,0,0,0,0,1,0,0h0a1.06,1.06,0,0,0,0-.31v-.07a1.06,1.06,0,0,0,0-.31s0,0,0,0a.79.79,0,0,0-.13-.26l0,0a.77.77,0,0,0-.22-.22l0,0-.06,0,0,0-.06,0-.1,0-.13,0-.1,0h-.35l-.1,0-.12,0-.09,0-.12.07-.07.05a.57.57,0,0,0-.11.11l-.06,0a.86.86,0,0,0-.13.2,1.28,1.28,0,0,0-.11.27s0,0,0,.08a1.14,1.14,0,0,0,0,.26v0a.89.89,0,0,0,.07.28.14.14,0,0,0,0,.06,1,1,0,0,0,.12.23s0,0,0,0,.06.2-.08.18h0a1.46,1.46,0,0,0-.29,0h-.06a1,1,0,0,0-.27.1h0a1.24,1.24,0,0,0-.23.17L39,75a1.08,1.08,0,0,0-.18.24.94.94,0,0,0-.1.28s0,0,0,.08a1.29,1.29,0,0,0,0,.28h0a1.36,1.36,0,0,0,.06.29l0,0a.94.94,0,0,0,.14.26h0c.08.1,0,.18-.09.16h0a1.37,1.37,0,0,0-.29,0h-.06a1.33,1.33,0,0,0-.28.1h0a1,1,0,0,0-.23.17.12.12,0,0,0,0,0,.88.88,0,0,0-.19.24,1.33,1.33,0,0,0-.1.28s0,.05,0,.08a1.29,1.29,0,0,0,0,.28h0a1,1,0,0,0,.07.28.14.14,0,0,0,0,.06.89.89,0,0,0,.14.25h0c.08.11,0,.18-.09.16h-.13l-.19,0h0a1,1,0,0,0-.29.12l-.06,0a1.16,1.16,0,0,0-.24.2s0,0,0,0a1,1,0,0,0-.16.25.05.05,0,0,0,0,0,1,1,0,0,0-.08.3s0,0,0,0v.06s0,0,0,.08,0,0,0,.06,0,.07,0,.11l0,.12a1,1,0,0,0,0,.1.37.37,0,0,0,0,.11l.05.09.08.1.06.08.1.08.08.06a.41.41,0,0,0,.11.07l.09,0,.14,0,.08,0,.23,0a1.26,1.26,0,0,0,.28,0l.08,0a.88.88,0,0,0,.2-.09l.05,0a1.12,1.12,0,0,0,.2-.18l0,0a1.07,1.07,0,0,0,.13-.19s0,0,0,0,.19-.14.27,0,0,0,0,0a.86.86,0,0,0,.14.18l0,0a1.2,1.2,0,0,0,.21.17l.06,0a.72.72,0,0,0,.2.09l.07,0a1.33,1.33,0,0,0,.28,0,1.26,1.26,0,0,0,.28,0l.08,0a.66.66,0,0,0,.19-.09l.06,0a1.12,1.12,0,0,0,.2-.18l0,0a.91.91,0,0,0,.13-.19s0,0,0,0,.19-.13.27,0,0,0,0,0a1.1,1.1,0,0,0,.14.18l0,0a.83.83,0,0,0,.21.16l0,0,.21.08.07,0a1.33,1.33,0,0,0,.28,0,1.26,1.26,0,0,0,.28,0l.08,0,.19-.1s0,0,.06,0l.2-.17,0,0a1.27,1.27,0,0,0,.13-.19l0,0c.07-.13.19-.14.26,0l0,0a1.27,1.27,0,0,0,.13.19l0,0a.87.87,0,0,0,.21.17l.05,0,.2.08.08,0a.89.89,0,0,0,.28,0,1,1,0,0,0,.24,0l.07,0,.15,0,.07,0,.12-.07a.46.46,0,0,0,.07-.07.39.39,0,0,0,.1-.08l.06-.08.07-.1,0-.09.05-.12,0-.1s0-.08,0-.13,0-.07,0-.1v-.07S45.58,79.51,45.58,79.49Z" transform="translate(-9.24 -6.83)"/><path class="cls-16" d="M24.39,66.74l0,0,.08,0a.57.57,0,0,0,.16-.11h0a1.21,1.21,0,0,0,.21-.24s0,0,0-.06a1.18,1.18,0,0,0,.12-.28s0,0,0,0a1.36,1.36,0,0,0,0-.29V65.6a1.09,1.09,0,0,0-.07-.3,0,0,0,0,0,0,0s0,0,0-.06a.33.33,0,0,1,0-.06l0-.06L24.87,65l-.08-.09a.6.6,0,0,0-.08-.08l-.1-.07-.08-.06-.11,0-.09,0-.13,0-.09,0h-.23l-.15,0-.07,0a1.09,1.09,0,0,0-.23.09.91.91,0,0,0-.23.17l-.06.06a.8.8,0,0,0-.15.21s0,0,0,0a1.69,1.69,0,0,0-.1.27.13.13,0,0,1,0,.06,2.11,2.11,0,0,0,0,.26v0c0,.14-.06.19-.17.11h0a1,1,0,0,0-.25-.15l-.05,0a1.37,1.37,0,0,0-.29-.07h0a1.27,1.27,0,0,0-.28,0h-.08a1.33,1.33,0,0,0-.28.1h0a1.08,1.08,0,0,0-.24.18l-.05,0a1.24,1.24,0,0,0-.17.23h0a1.22,1.22,0,0,0-.09.27s0,0,0,.06a1.41,1.41,0,0,0,0,.29h0c0,.14-.07.18-.17.09h0a.89.89,0,0,0-.25-.14l-.06,0-.28-.07h0a1.32,1.32,0,0,0-.28,0h-.08a1,1,0,0,0-.52.29l-.05,0a1.18,1.18,0,0,0-.17.22h0a1,1,0,0,0-.1.27.13.13,0,0,0,0,.06,1,1,0,0,0,0,.29h0c0,.14-.06.18-.17.09l0,0-.06,0-.18-.08,0,0h0a1.45,1.45,0,0,0-.3-.06H18a1,1,0,0,0-.3,0l0,0a.66.66,0,0,0-.27.12l0,0a1.51,1.51,0,0,0-.23.21s0,0,0,0l0,0,0,.06,0,.06,0,.09a.61.61,0,0,0-.05.12.58.58,0,0,0,0,.1.69.69,0,0,0,0,.13s0,.07,0,.1,0,.09,0,.13,0,.06,0,.09l0,.13,0,.09a.75.75,0,0,0,.07.12s0,0,0,.08a.52.52,0,0,0,.1.11l.05.06a.9.9,0,0,0,.19.15.85.85,0,0,0,.26.11l.07,0a.83.83,0,0,0,.22,0H18a1.24,1.24,0,0,0,.27,0l0,0a.85.85,0,0,0,.22-.09h0c.13-.07.23,0,.22.14v0a.86.86,0,0,0,0,.23v0a1.14,1.14,0,0,0,.09.26l0,0,.13.18.05.06a1,1,0,0,0,.47.29l.08,0a.76.76,0,0,0,.21,0h.07a1.09,1.09,0,0,0,.26,0l.05,0a1,1,0,0,0,.21-.09h0c.12-.07.23,0,.22.14v0a.91.91,0,0,0,0,.23.06.06,0,0,0,0,0,1.14,1.14,0,0,0,.09.26l0,0A.71.71,0,0,0,21,72l.05.06a1.15,1.15,0,0,0,.48.3h.07a.83.83,0,0,0,.22,0h.06a1.24,1.24,0,0,0,.27,0l0,0a.85.85,0,0,0,.22-.09h0c.13-.07.23,0,.22.14v0a.93.93,0,0,0,0,.23v0a1.14,1.14,0,0,0,.09.26l0,0a.83.83,0,0,0,.13.18l.05.06a1,1,0,0,0,.22.18,1,1,0,0,0,.21.1l.08,0,.14,0h.09a.33.33,0,0,0,.14,0h.1l.12,0,.1,0,.11-.05.09,0,.11-.08.07-.06a.28.28,0,0,0,.09-.1.27.27,0,0,0,.07-.08l0-.05,0-.07,0,0s0,0,0,0a1.71,1.71,0,0,0,.09-.3v0a1.51,1.51,0,0,0,0-.3v0a1,1,0,0,0-.11-.29l0-.06a1.16,1.16,0,0,0-.2-.25h0s0,0,0,0a.83.83,0,0,0-.15-.11l-.07,0,0,0c-.13-.06-.12-.14,0-.19h0a1.28,1.28,0,0,0,.25-.15l.05,0a1.34,1.34,0,0,0,.2-.21h0a1.12,1.12,0,0,0,.13-.24.25.25,0,0,0,0-.07,1.07,1.07,0,0,0,.06-.3,1,1,0,0,0,0-.3.19.19,0,0,0,0-.07.85.85,0,0,0-.11-.26h0a1.06,1.06,0,0,0-.19-.23l0,0-.24-.16h0c-.13-.06-.13-.14,0-.19h0a1.28,1.28,0,0,0,.25-.15l.05,0a1.37,1.37,0,0,0,.2-.22h0a.85.85,0,0,0,.13-.25l0-.07A1,1,0,0,0,25,68a1,1,0,0,0,0-.3s0,0,0-.07a1.51,1.51,0,0,0-.12-.26h0a.79.79,0,0,0-.19-.22s0,0,0,0a1.11,1.11,0,0,0-.24-.16h0C24.27,66.87,24.26,66.79,24.39,66.74Z" transform="translate(-9.24 -6.83)"/><path class="cls-16" d="M16.68,54.79a1.25,1.25,0,0,0,.37.09h.12a1.69,1.69,0,0,0,.39-.08,1,1,0,0,0,.58-.54,1.17,1.17,0,0,1,.05-.11,1.4,1.4,0,0,0,.06-.28s0-.08,0-.11a1.2,1.2,0,0,0-.05-.38c-.05-.13,0-.19.14-.13h0l.08,0a.72.72,0,0,0,.19,0h0a1.15,1.15,0,0,0,.32,0h.07a1,1,0,0,0,.28-.11l0,0a2.11,2.11,0,0,0,.23-.19l0,0a1.45,1.45,0,0,0,.17-.26s0,0,0,0,0,0,0-.06,0,0,0-.06a.2.2,0,0,0,0-.07.85.85,0,0,0,0-.23v-.1s0-.09,0-.13a.36.36,0,0,0,0-.1.84.84,0,0,0,0-.12.25.25,0,0,0,0-.09l-.06-.11-.06-.08a.43.43,0,0,0-.09-.1l-.06-.07-.13-.09-.06,0a1,1,0,0,0-.51-.14h-.08a1.27,1.27,0,0,0-.26,0h0a1.23,1.23,0,0,0-.26.12l0,0-.2.17,0,0c-.09.1-.18.09-.19-.05h0a1.47,1.47,0,0,0-.08-.28s0,0,0-.05a1.28,1.28,0,0,0-.15-.25h0a1.29,1.29,0,0,0-.21-.19l-.06,0a1.66,1.66,0,0,0-.27-.13h0a1,1,0,0,0-.3,0H16.6a.86.86,0,0,0-.28,0h0a1.23,1.23,0,0,0-.26.12l-.06,0-.22.19h0c-.09.11-.17.08-.18,0h0a1.28,1.28,0,0,0-.07-.28l0-.06a1.28,1.28,0,0,0-.15-.25h0a1.29,1.29,0,0,0-.21-.19l-.06,0a1.13,1.13,0,0,0-.27-.13,1,1,0,0,0-.3,0h-.07a.86.86,0,0,0-.28,0h0a1.23,1.23,0,0,0-.26.12l-.05,0a1.37,1.37,0,0,0-.22.19h0c-.09.11-.17.09-.19-.05v0a.28.28,0,0,0,0-.09.64.64,0,0,0-.06-.18s0,0,0,0h0a1.06,1.06,0,0,0-.17-.26s0,0-.05,0a1.16,1.16,0,0,0-.24-.2l0,0a1.33,1.33,0,0,0-.28-.1h0a1.08,1.08,0,0,0-.31,0H12l-.06,0-.1,0-.12.05-.09,0-.1.08-.07.06-.09.1-.06.08-.06.11,0,.09a.5.5,0,0,0,0,.13l0,.08a.76.76,0,0,0,0,.15s0,0,0,.08a1,1,0,0,0,0,.24,1.17,1.17,0,0,0,.1.26.43.43,0,0,0,0,.07,1.09,1.09,0,0,0,.13.17l0,0a1.73,1.73,0,0,0,.21.17l0,0,.22.08,0,0c.15,0,.17.16.06.26l0,0a1.37,1.37,0,0,0-.16.18l0,0a1.19,1.19,0,0,0-.13.25.43.43,0,0,0,0,.05.85.85,0,0,0,0,.22s0,0,0,.07a1.43,1.43,0,0,0,0,.29.82.82,0,0,0,.1.26.25.25,0,0,0,0,.07.7.7,0,0,0,.13.17l0,0a.83.83,0,0,0,.21.16l0,0,.21.09,0,0c.15,0,.17.16.06.25l0,0a.9.9,0,0,0-.15.18l0,0a1.15,1.15,0,0,0-.12.25s0,0,0,0a1.7,1.7,0,0,0,0,.22v.07a1,1,0,0,0,0,.29,1.17,1.17,0,0,0,.1.26l0,.07a1.09,1.09,0,0,0,.13.17l0,0a1.12,1.12,0,0,0,.22.16l0,0a.78.78,0,0,0,.21.09l0,0c.15,0,.18.16.06.25l0,0a.8.8,0,0,0-.15.17l0,0a1.34,1.34,0,0,0-.12.24s0,0,0,.06a1.43,1.43,0,0,0,0,.22s0,.05,0,.07a1.27,1.27,0,0,0,0,.28,1,1,0,0,0,.07.23l0,.06a.57.57,0,0,0,.08.13l.06.07.09.1.08.06.1.07.09.05.12,0,.1,0,.12,0h.23l.11,0h.06l.07,0h.06l0,0a.72.72,0,0,0,.27-.15l0,0a1.34,1.34,0,0,0,.2-.21s0,0,0,0a1,1,0,0,0,.13-.28.19.19,0,0,0,0-.07,1.1,1.1,0,0,0,0-.31h0v0a1.25,1.25,0,0,0,0-.19s0-.06,0-.08a.08.08,0,0,1,0,0c-.05-.14,0-.19.14-.13a1.17,1.17,0,0,0,.37.08h.11a1.35,1.35,0,0,0,.29,0l.11,0a1.08,1.08,0,0,0,.34-.21h0a1,1,0,0,0,.24-.33,1.66,1.66,0,0,0,.11-.38s0-.08,0-.12a1.19,1.19,0,0,0-.06-.37C16.5,54.79,16.56,54.74,16.68,54.79Z" transform="translate(-9.24 -6.83)"/><path class="cls-16" d="M11.57,34.81s0,.06,0,.09l0,.13a.36.36,0,0,0,0,.09.61.61,0,0,0,0,.12.35.35,0,0,0,.05.08l.07.11.07.07.09.09.09.06.11.07.1,0,.05,0h.07l.06,0h0a1.15,1.15,0,0,0,.32,0h0a1.28,1.28,0,0,0,.28-.07l0,0a1.13,1.13,0,0,0,.26-.16l.05,0a1,1,0,0,0,.2-.25h0s0,0,0,0a1.42,1.42,0,0,0,.08-.18s0-.06,0-.08,0,0,0,0,.11-.15.19,0h0a1,1,0,0,0,.2.21l.05,0a1,1,0,0,0,.25.15h0a1.28,1.28,0,0,0,.28.07h.07a1,1,0,0,0,.58-.12l.07,0a1.84,1.84,0,0,0,.22-.17h0a1,1,0,0,0,.17-.23l0-.05a1,1,0,0,0,.1-.27h0c0-.14.11-.15.19,0h0a1.34,1.34,0,0,0,.2.21l.05,0a1,1,0,0,0,.25.15h0L17,35h.07a1,1,0,0,0,.3,0,1.42,1.42,0,0,0,.29-.1l.06,0a.89.89,0,0,0,.22-.16h0a1.3,1.3,0,0,0,.18-.23s0,0,0-.06a1.09,1.09,0,0,0,.11-.27h0c0-.13.1-.15.18,0l.06.05,0,0,.06,0,.1.11.13.07.12.06a1,1,0,0,0,.29.08l.1,0a1.31,1.31,0,0,0,.39-.05l.09,0a1.13,1.13,0,0,0,.22-.11l.07-.06,0,0,0,0a1,1,0,0,0,.24-.31l0,0a1.18,1.18,0,0,0,.09-.37v0a1,1,0,0,0,0-.39,0,0,0,0,0,0,0,1.23,1.23,0,0,0-.21-.37,1.11,1.11,0,0,0-.32-.25l-.11,0a.9.9,0,0,0-.28-.08H19.4a1.11,1.11,0,0,0-.36,0c-.14,0-.2,0-.15-.14a1,1,0,0,0,.1-.37v-.11a.86.86,0,0,0,0-.28s0-.08,0-.11a1.13,1.13,0,0,0-.21-.35,1.11,1.11,0,0,0-.32-.25,1.29,1.29,0,0,0-.38-.12h-.12a1.17,1.17,0,0,0-.37,0c-.13,0-.19,0-.13-.15a.88.88,0,0,0,.1-.36V30a.9.9,0,0,0,0-.28l0-.11a1,1,0,0,0-.52-.6l-.11-.05a1.28,1.28,0,0,0-.28-.07h-.11a1,1,0,0,0-.38,0c-.13,0-.18,0-.12-.14s0,0,0,0,0-.05,0-.08a1.29,1.29,0,0,0,0-.19s0,0,0,0h0a1.08,1.08,0,0,0,0-.31s0-.05,0-.07a1,1,0,0,0-.11-.29l0,0a2,2,0,0,0-.17-.23s0,0,0,0a1.51,1.51,0,0,0-.26-.18l0,0-.06,0-.06,0H15.2l-.11,0h-.36l-.1,0-.12,0-.09,0-.11.06-.08.05-.11.09-.06.06-.1.12,0,.06a1.09,1.09,0,0,0-.16.5v.07a1.5,1.5,0,0,0,0,.22s0,0,0,.06a2.77,2.77,0,0,0,.1.26s0,0,0,0a1.33,1.33,0,0,0,.14.19l0,0c.1.11.06.23-.09.25h0l-.22.07h-.05a1.14,1.14,0,0,0-.23.15l0,0a.75.75,0,0,0-.15.16l0,.06a1,1,0,0,0-.18.54v.07a1.64,1.64,0,0,0,0,.22.13.13,0,0,1,0,.06.87.87,0,0,0,.1.25.08.08,0,0,0,0,0,.85.85,0,0,0,.14.19s0,0,0,0,.06.22-.09.25h0a1,1,0,0,0-.23.06l0,0-.23.14s0,0,0,0a1.1,1.1,0,0,0-.15.16l0,.07a1.15,1.15,0,0,0-.12.25,1.4,1.4,0,0,0-.06.28v.07a1.5,1.5,0,0,0,0,.22.13.13,0,0,1,0,.06.93.93,0,0,0,.1.26s0,0,0,0a.85.85,0,0,0,.14.19s0,0,0,0,.06.22-.09.25h0l-.23.07,0,0a.79.79,0,0,0-.23.14l0,0a.75.75,0,0,0-.15.16l-.05.06a2.1,2.1,0,0,0-.13.26,1.55,1.55,0,0,0,0,.23v.24Z" transform="translate(-9.24 -6.83)"/><path class="cls-16" d="M15.49,24.65a.53.53,0,0,0,0,.13s0,.07,0,.1a.5.5,0,0,0,0,.13l0,.09.06.11.06.09.08.1.06.07.11.08.07.05.14.07.07,0a1,1,0,0,0,.23.06.76.76,0,0,0,.3,0h.07a1,1,0,0,0,.25-.07h0a1.67,1.67,0,0,0,.24-.16l0,0a1.63,1.63,0,0,0,.17-.2h0c.08-.13.17-.13.21,0h0a.85.85,0,0,0,.11.26l0,0a1.37,1.37,0,0,0,.19.22h0a1.14,1.14,0,0,0,.23.15l.07,0a1,1,0,0,0,.29.08,1.5,1.5,0,0,0,.3,0h.07a1.07,1.07,0,0,0,.27-.09h0a.78.78,0,0,0,.24-.16l0,0a1,1,0,0,0,.18-.22h0c.08-.12.15-.11.19,0h0a1.23,1.23,0,0,0,.12.26l0,0a1,1,0,0,0,.19.22h0a1.58,1.58,0,0,0,.24.15l.07,0a1,1,0,0,0,.59.09l.07,0a.77.77,0,0,0,.27-.08h0a1,1,0,0,0,.24-.16l0,0a1.3,1.3,0,0,0,.18-.23h0c.07-.11.15-.11.19,0s0,0,0,0,0,0,0,.08l.09.17s0,0,0,0h0a.9.9,0,0,0,.21.23l.05,0a.72.72,0,0,0,.27.15h0a1,1,0,0,0,.29.07h0a1.63,1.63,0,0,0,.31,0h0l.06,0,.07,0,.05,0a.31.31,0,0,0,.1-.05l.11-.07.08-.07a.24.24,0,0,0,.08-.09l.07-.07.06-.11a.41.41,0,0,0,.05-.09s0-.08.05-.12l0-.09s0-.09,0-.13,0-.06,0-.09v-.15a.22.22,0,0,0,0-.08,1.55,1.55,0,0,0-.07-.23.72.72,0,0,0-.14-.24s0,0-.05-.06a.71.71,0,0,0-.15-.15l-.05,0a.92.92,0,0,0-.24-.13l0,0-.23-.05h0c-.15,0-.2-.13-.1-.24l0,0a.82.82,0,0,0,.12-.2l0,0a2,2,0,0,0,.08-.26v-.06a1.55,1.55,0,0,0,0-.22.17.17,0,0,0,0-.07,1,1,0,0,0-.21-.52l-.05-.06-.15-.15,0,0a1.36,1.36,0,0,0-.24-.13h0l-.22-.05h0c-.15,0-.2-.13-.1-.25s0,0,0,0a.76.76,0,0,0,.12-.19l0,0a2.58,2.58,0,0,0,.08-.26v-.06a.81.81,0,0,0,0-.22.15.15,0,0,0,0-.07,1,1,0,0,0-.21-.52l-.05-.06a.71.71,0,0,0-.15-.15l-.05,0a1.36,1.36,0,0,0-.24-.13h0a1.8,1.8,0,0,0-.22-.06h0c-.15,0-.2-.13-.1-.25l0,0a1,1,0,0,0,.12-.19l0-.05a2.41,2.41,0,0,0,.08-.25v-.06a1.7,1.7,0,0,0,0-.22.22.22,0,0,0,0-.08.9.9,0,0,0-.07-.27.7.7,0,0,0-.11-.21l-.05-.06-.1-.12-.07-.06-.1-.08-.09,0a.67.67,0,0,0-.12-.06l-.09,0-.12,0h-.33l-.13,0-.1,0-.06,0-.07,0-.05,0,0,0a1.5,1.5,0,0,0-.25.19l0,0a1,1,0,0,0-.16.24s0,0,0,0a1,1,0,0,0-.08.29s0,.05,0,.08a1.08,1.08,0,0,0,0,.31h0v0a1.21,1.21,0,0,0,.05.18s0,.05,0,.08,0,0,0,0,0,.18-.11.14a1.22,1.22,0,0,0-.38,0l-.11,0a1.31,1.31,0,0,0-.28.09l-.1.05a1,1,0,0,0-.49.63.43.43,0,0,0,0,.11,1,1,0,0,0,0,.29v.11a1.09,1.09,0,0,0,.12.36c.07.12,0,.19-.12.15a1.2,1.2,0,0,0-.38,0l-.11,0a1,1,0,0,0-.87.73l0,.11a1.32,1.32,0,0,0,0,.28.49.49,0,0,0,0,.12,1.18,1.18,0,0,0,.12.36c.06.12,0,.19-.12.15h0l-.09,0h-.22a1.16,1.16,0,0,0-.31.07l-.06,0a.92.92,0,0,0-.27.16l0,0a1.06,1.06,0,0,0-.19.23l0,0a1.08,1.08,0,0,0-.13.29s0,0,0,0a.15.15,0,0,1,0,.06.25.25,0,0,1,0,.07v.16Z" transform="translate(-9.24 -6.83)"/><path class="cls-16" d="M33.77,11.59l0,0,.2-.12,0,0a1.14,1.14,0,0,0,.19-.19l0-.06a1.18,1.18,0,0,0,.11-.19l0-.07a1.27,1.27,0,0,0,.06-.28,1.93,1.93,0,0,0,0-.24.19.19,0,0,0,0-.07l0-.15s0-.05,0-.08L34.29,10l-.06-.08a.61.61,0,0,0-.07-.1.25.25,0,0,0-.08-.07L34,9.63l-.08-.05-.11-.06-.1,0-.12,0h-.11l-.06,0h-.17a.8.8,0,0,0-.3.06.05.05,0,0,0,0,0,.94.94,0,0,0-.26.14l0,0a1.1,1.1,0,0,0-.21.22l0,.06a1,1,0,0,0-.13.28h0v0a.68.68,0,0,0,0,.19v.09s0,0,0,0-.07.17-.17.08h0a1.58,1.58,0,0,0-.24-.15l-.06,0a.9.9,0,0,0-.28-.08h-.36a1.4,1.4,0,0,0-.29.09.85.85,0,0,0-.25.17.12.12,0,0,0-.05.05.91.91,0,0,0-.18.21h0a1.53,1.53,0,0,0-.11.27v.06a.7.7,0,0,0,0,.29h0c0,.13-.07.17-.18.08h0a1.43,1.43,0,0,0-.24-.16l-.06,0a.9.9,0,0,0-.28-.08h0a.71.71,0,0,0-.29,0H29a.75.75,0,0,0-.29.09,1.32,1.32,0,0,0-.25.16l-.05,0a1.24,1.24,0,0,0-.18.22h0a1.11,1.11,0,0,0-.12.27s0,0,0,.06a1.33,1.33,0,0,0,0,.28h0c0,.14-.07.18-.17.09l0,0-.06-.06a.7.7,0,0,0-.17-.09l0,0h0a1.09,1.09,0,0,0-.3-.07h-.07a1.06,1.06,0,0,0-.31,0h0a.81.81,0,0,0-.27.11l0,0a.91.91,0,0,0-.24.2l0,0,0,0-.05.05s0,0,0,.06a.41.41,0,0,0-.05.09.61.61,0,0,0-.05.12.54.54,0,0,0,0,.1l0,.13a.38.38,0,0,1,0,.1v.12a.31.31,0,0,0,0,.1l0,.13,0,.09a.67.67,0,0,0,.06.12.2.2,0,0,0,0,.08l.09.13.05.06a.9.9,0,0,0,.18.15.84.84,0,0,0,.27.13l.07,0a1.09,1.09,0,0,0,.26,0h0a1,1,0,0,0,.29,0h.06l.24-.1s0,0,0,0,.2,0,.17.1h0a.88.88,0,0,0,0,.28v.06a1.37,1.37,0,0,0,.07.29h0a1,1,0,0,0,.14.24l0,.06a1,1,0,0,0,.49.33l.07,0a1.35,1.35,0,0,0,.28,0h0a1,1,0,0,0,.29,0h.06a1.23,1.23,0,0,0,.26-.12h0c.12-.08.19,0,.16.11h0a.93.93,0,0,0,0,.29v.06a1.43,1.43,0,0,0,.07.28h0a.84.84,0,0,0,.14.24l0,.06a1,1,0,0,0,.22.2,1.74,1.74,0,0,0,.27.14l.07,0a1.35,1.35,0,0,0,.28,0h0a1,1,0,0,0,.29,0h.06a1.23,1.23,0,0,0,.26-.12h0c.12-.07.19,0,.16.11v0s0,.06,0,.08a.67.67,0,0,0,0,.2v0h0a.86.86,0,0,0,.09.3.25.25,0,0,0,0,.07,1.44,1.44,0,0,0,.18.25s0,0,0,0a1.3,1.3,0,0,0,.23.18l0,0a1.18,1.18,0,0,0,.3.1l0,0h.13a.16.16,0,0,0,.07,0,.2.2,0,0,0,.11,0H33l.1,0,.12,0,.1,0,.1-.07.08-.05.1-.09a.46.46,0,0,1,.07-.07l.07-.11,0-.07.06-.14s0-.05,0-.07a1,1,0,0,0,.05-.24,1.32,1.32,0,0,0,0-.28.24.24,0,0,0,0-.08.68.68,0,0,0-.07-.2l0-.06a1.07,1.07,0,0,0-.15-.22l0,0-.18-.15,0,0c-.12-.08-.12-.21,0-.27h0l.2-.12,0,0a1.21,1.21,0,0,0,.19-.2l0-.05a1.14,1.14,0,0,0,.1-.19l0-.07a1.4,1.4,0,0,0,.06-.28,1.29,1.29,0,0,0,0-.28.24.24,0,0,1,0-.08.7.7,0,0,0-.08-.2.14.14,0,0,0,0-.06.82.82,0,0,0-.16-.22l0,0a.65.65,0,0,0-.18-.15l0,0a.15.15,0,0,1-.09-.18.14.14,0,0,1,.11-.09l0,0a1.06,1.06,0,0,0,.2-.12l0,0a1.19,1.19,0,0,0,.19-.2l0-.05a1.14,1.14,0,0,0,.1-.19l0-.07a1.4,1.4,0,0,0,.06-.28,1.27,1.27,0,0,0,0-.28.19.19,0,0,0,0-.08.68.68,0,0,0-.07-.2l0-.06a1.07,1.07,0,0,0-.15-.22l0,0-.18-.15,0,0C33.62,11.77,33.63,11.65,33.77,11.59Z" transform="translate(-9.24 -6.83)"/><path class="cls-16" d="M52.42,15.88l.08,0a1,1,0,0,0,.22-.08,1.19,1.19,0,0,0,.23-.16l.06-.06a1.07,1.07,0,0,0,.14-.16l0-.05a1.12,1.12,0,0,0,.11-.25s0,0,0,0a.85.85,0,0,0,0-.23s0,0,0,0,.11-.21.24-.12l0,0,.2.1,0,0a1.1,1.1,0,0,0,.26.06h.35a.79.79,0,0,0,.27-.1.73.73,0,0,0,.23-.16l.06-.05a1.15,1.15,0,0,0,.14-.17l0,0a.8.8,0,0,0,.11-.25.06.06,0,0,0,0,0,1.85,1.85,0,0,0,0-.23v0c0-.15.12-.2.24-.12l0,0a1.39,1.39,0,0,0,.21.11l0,0a1.09,1.09,0,0,0,.26.05h.06a.79.79,0,0,0,.22,0h.08a1.14,1.14,0,0,0,.26-.09,1,1,0,0,0,.24-.17s0,0,0-.05a1.15,1.15,0,0,0,.14-.17l0-.05a1.89,1.89,0,0,0,.11-.25.06.06,0,0,1,0,0,1.81,1.81,0,0,0,0-.23s0,0,0,0,.11-.2.23-.11h0l.21.11,0,0a1.31,1.31,0,0,0,.27.06h.06a.75.75,0,0,0,.21,0h.08a1.43,1.43,0,0,0,.27-.09,1.37,1.37,0,0,0,.2-.13l0-.05.11-.11.05-.08a1,1,0,0,0,.08-.11l0-.09a.61.61,0,0,0,0-.12s0-.06,0-.1a.5.5,0,0,0,0-.12v-.23s0-.07,0-.1l0-.13a1,1,0,0,1,0-.1l0-.06s0,0,0-.06a.13.13,0,0,1,0,0s0,0,0,0a1,1,0,0,0-.22-.23l0,0a.94.94,0,0,0-.26-.14.05.05,0,0,0,0,0,1.45,1.45,0,0,0-.3-.06h-.07a1.06,1.06,0,0,0-.31,0h0a.67.67,0,0,0-.18.07l-.08,0,0,0c-.12.08-.19,0-.16-.11h0a1.4,1.4,0,0,0,0-.29v-.06a1.47,1.47,0,0,0-.08-.28h0a1,1,0,0,0-.15-.24l0-.06a1,1,0,0,0-.5-.33l-.07,0a1.33,1.33,0,0,0-.28,0h0a1,1,0,0,0-.29,0l-.06,0a1.23,1.23,0,0,0-.26.12h0c-.11.07-.18,0-.16-.11h0a.88.88,0,0,0,0-.28.13.13,0,0,0,0-.06,1.37,1.37,0,0,0-.07-.29h0a1,1,0,0,0-.15-.24l0-.06a1,1,0,0,0-.5-.33l-.07,0a1.27,1.27,0,0,0-.28,0h0a.92.92,0,0,0-.29,0l-.06,0a1.23,1.23,0,0,0-.26.12h0c-.12.08-.19,0-.16-.1v0s0-.06,0-.09a1.21,1.21,0,0,0,0-.19v0h0a.75.75,0,0,0-.09-.3l0-.07a1.44,1.44,0,0,0-.18-.25l0,0L53.15,7l0,0a1.42,1.42,0,0,0-.29-.1h-.24a.93.93,0,0,0-.23,0l-.1,0-.12,0L52,7,51.93,7l-.08.06-.09.09-.06.07-.08.12,0,.07a.47.47,0,0,0-.06.15l0,.07a2.23,2.23,0,0,0,0,.23,1.53,1.53,0,0,0,0,.3.64.64,0,0,0,0,.07.77.77,0,0,0,.1.25v0a1.28,1.28,0,0,0,.17.22l0,0A1.16,1.16,0,0,0,52,9h0c.13.07.13.15,0,.2h0a.89.89,0,0,0-.25.14l-.05,0a1,1,0,0,0-.2.21h0a1.12,1.12,0,0,0-.13.24l0,.07a1,1,0,0,0,0,.59.24.24,0,0,0,0,.08,1.17,1.17,0,0,0,.1.26h0a1.3,1.3,0,0,0,.19.22s0,0,0,0a1,1,0,0,0,.24.17h0c.12.06.12.14,0,.19h0a1.3,1.3,0,0,0-.26.14l0,0-.2.2h0a1.19,1.19,0,0,0-.13.25l0,.06a1.59,1.59,0,0,0-.06.3,1.53,1.53,0,0,0,0,.3l0,.07a.76.76,0,0,0,.11.26h0a1.3,1.3,0,0,0,.18.23l0,0a1,1,0,0,0,.24.17h0c.12.06.12.14,0,.19l0,0-.08,0-.16.1h0a1,1,0,0,0-.22.23.21.21,0,0,1,0,.06,1.82,1.82,0,0,0-.13.28v0a1,1,0,0,0,0,.3v0a1.55,1.55,0,0,0,.06.31,0,0,0,0,0,0,0,.21.21,0,0,0,0,.06l0,.07,0,.05.06.09.08.1.08.07.09.08.09.06.11.06.09,0,.13,0,.09,0h.37Z" transform="translate(-9.24 -6.83)"/></g><g id="RED_ELEMENTS-4" data-name="RED ELEMENTS-4"><use width="47.8" height="42.99" transform="matrix(-0.04, -0.19, -0.19, 0.04, 23.82, 69.6)" xlink:href="#New_Symbol_2"/><use width="47.8" height="42.99" transform="matrix(-0.04, -0.19, -0.19, 0.04, 13.69, 52.32)" xlink:href="#New_Symbol_2"/><use width="47.8" height="42.99" transform="matrix(-0.04, -0.19, -0.19, 0.04, 12.58, 36.79)" xlink:href="#New_Symbol_2"/><use width="47.8" height="42.99" transform="matrix(0.14, -0.13, -0.13, -0.14, 13.42, 22.74)" xlink:href="#New_Symbol_2"/><use width="47.8" height="42.99" transform="matrix(0.14, -0.13, -0.13, -0.14, 26.38, 14.16)" xlink:href="#New_Symbol_2"/></g><g id="SHADE_25" data-name="SHADE 25" class="cls-56"><path class="cls-16" d="M32.82,75.33a1.07,1.07,0,0,0-.09-.27.43.43,0,0,0,0-.07l-.12-.18s0,0,0,0a1.68,1.68,0,0,0-.21-.18.05.05,0,0,1,0,0,.85.85,0,0,0-.22-.09l0,0c-.14,0-.17-.16-.05-.26s0,0,0,0a.85.85,0,0,0,.16-.17l0,0a.92.92,0,0,0,.13-.24.14.14,0,0,1,0-.06,1.3,1.3,0,0,0,0-.21s0,0,0-.07a1,1,0,0,0-.11-.55.43.43,0,0,0,0-.07.81.81,0,0,0-.12-.18l0,0-.21-.17,0,0a1,1,0,0,0-.21-.09l0,0c-.14,0-.17-.16,0-.26l0,0a.81.81,0,0,0,.16-.16l0,0a.92.92,0,0,0,.13-.24s0,0,0-.06a1.55,1.55,0,0,0,0-.21s0,0,0-.07a1,1,0,0,0,0-.29,1.43,1.43,0,0,0-.09-.27.21.21,0,0,0,0-.06.81.81,0,0,0-.12-.18l0-.05a1.73,1.73,0,0,0-.21-.17l0,0-.21-.1h0c-.14,0-.17-.16-.05-.26l0,0a1.14,1.14,0,0,0,.15-.16l0,0a1.41,1.41,0,0,0,.13-.24s0,0,0-.06a.78.78,0,0,0,0-.21s0,0,0-.08a.88.88,0,0,0,0-.28,1,1,0,0,0-.07-.23.21.21,0,0,0,0-.06.91.91,0,0,0-.07-.14l-.06-.07-.09-.1L31.07,68,31,67.93l-.08-.05-.12,0-.1,0-.12,0h-.4l-.07,0H30l0,0a1,1,0,0,0-.28.14l0,0a1,1,0,0,0-.21.21l0,0a1.34,1.34,0,0,0-.13.27.25.25,0,0,0,0,.07,1.12,1.12,0,0,0-.05.31h0v0a1.11,1.11,0,0,0,0,.19.29.29,0,0,0,0,.09.08.08,0,0,0,0,0c0,.13,0,.18-.14.12a1.18,1.18,0,0,0-.37-.09h-.12a.9.9,0,0,0-.28,0l-.11,0a1,1,0,0,0-.59.52.54.54,0,0,0-.05.11.89.89,0,0,0-.07.28s0,.07,0,.11a1.2,1.2,0,0,0,0,.38c0,.13,0,.18-.15.12a1.18,1.18,0,0,0-.37-.09H27a1,1,0,0,0-.29,0l-.11,0a1.1,1.1,0,0,0-.35.2,1.12,1.12,0,0,0-.24.33.47.47,0,0,0-.05.1,1,1,0,0,0-.07.28.52.52,0,0,0,0,.11,1.2,1.2,0,0,0,.05.38c0,.13,0,.19-.14.13h0l-.08,0-.19,0h0a1.08,1.08,0,0,0-.31,0H25a1.66,1.66,0,0,0-.29.1l0,0a.76.76,0,0,0-.23.17l0,0a1.06,1.06,0,0,0-.17.26l0,0s0,0,0,.06l0,.06,0,.07s0,.06,0,.1a.57.57,0,0,0,0,.13.17.17,0,0,0,0,.1.57.57,0,0,0,0,.13.44.44,0,0,0,0,.1l0,.12,0,.09.06.11a.28.28,0,0,0,0,.08l.09.11.06.06a.38.38,0,0,0,.13.09l.06.05a1,1,0,0,0,.51.15h.07a1.09,1.09,0,0,0,.26,0h0a1.19,1.19,0,0,0,.26-.11l.05,0a1.73,1.73,0,0,0,.21-.17h0c.1-.11.19-.09.2,0h0a1.4,1.4,0,0,0,.06.28l0,0a.94.94,0,0,0,.14.26h0a1,1,0,0,0,.21.2l.06,0a.94.94,0,0,0,.26.14,1,1,0,0,0,.3,0h.07a1.27,1.27,0,0,0,.28,0h0a1.11,1.11,0,0,0,.27-.12l.05,0a1,1,0,0,0,.22-.18h0c.1-.11.17-.08.19.06h0a1.4,1.4,0,0,0,.06.28.14.14,0,0,1,0,.06,1.28,1.28,0,0,0,.15.25h0a1.26,1.26,0,0,0,.2.2l.06,0a1.16,1.16,0,0,0,.27.14,1,1,0,0,0,.3,0h.07a1.27,1.27,0,0,0,.28,0h0l.27-.11.05,0a1,1,0,0,0,.22-.18h0c.09-.1.17-.08.18.06a.06.06,0,0,1,0,0s0,.06,0,.08a.6.6,0,0,0,.06.19v0h0a2,2,0,0,0,.17.27l0,0a1.16,1.16,0,0,0,.24.2l0,0a1,1,0,0,0,.28.11h0a1.05,1.05,0,0,0,.31,0h.17l.06,0,.1,0,.12-.05.09,0a.39.39,0,0,0,.1-.08l.08-.06.08-.09.07-.08.06-.11,0-.08s0-.09,0-.13l0-.09s0-.1,0-.15v-.08A1,1,0,0,0,32.82,75.33Z" transform="translate(-9.24 -6.83)"/><path class="cls-16" d="M22.69,58.05a.79.79,0,0,0-.1-.27l0-.07-.13-.18s0,0,0,0a.68.68,0,0,0-.21-.17l0,0a1.33,1.33,0,0,0-.21-.09l0,0c-.15,0-.17-.16,0-.25l0,0a1.29,1.29,0,0,0,.16-.17l0,0a.9.9,0,0,0,.12-.24.08.08,0,0,0,0-.05,1.42,1.42,0,0,0,.05-.22s0,0,0-.07a1.27,1.27,0,0,0,0-.28,1.07,1.07,0,0,0-.09-.27l0-.07L22,55.31s0,0,0,0a.91.91,0,0,0-.21-.18l0,0a.67.67,0,0,0-.21-.09l0,0c-.14,0-.17-.16-.05-.26s0,0,0,0a1.29,1.29,0,0,0,.16-.17l0,0a1.36,1.36,0,0,0,.13-.24s0,0,0-.06A.72.72,0,0,0,21.8,54s0-.05,0-.07a1.42,1.42,0,0,0,0-.29,1.14,1.14,0,0,0-.09-.26l0-.07-.13-.18,0-.05-.2-.17-.05,0a.67.67,0,0,0-.21-.09l0,0c-.14,0-.17-.16-.05-.26l0,0a1.29,1.29,0,0,0,.16-.17l0,0a1.36,1.36,0,0,0,.13-.24s0,0,0-.06a.8.8,0,0,0,.05-.21s0-.05,0-.07a1.42,1.42,0,0,0,0-.29.94.94,0,0,0-.07-.22.43.43,0,0,0,0-.07c0-.05-.05-.09-.07-.13l-.06-.07L21,50.78l-.08-.05-.1-.08-.09,0-.11-.05-.1,0-.12,0H20l-.06,0h-.06l0,0a.92.92,0,0,0-.28.14l0,0a1.34,1.34,0,0,0-.2.21l0,0a1.38,1.38,0,0,0-.14.27.14.14,0,0,1,0,.07,1.1,1.1,0,0,0,0,.31h0v0a1.11,1.11,0,0,0,0,.19s0,.06,0,.09,0,0,0,0,0,.18-.14.12a1.18,1.18,0,0,0-.37-.09h-.11a.92.92,0,0,0-.29,0,.45.45,0,0,0-.11,0,1,1,0,0,0-.59.52l-.05.11a1.28,1.28,0,0,0-.07.28s0,.07,0,.11a1.58,1.58,0,0,0,.05.38c0,.13,0,.18-.14.12a1.56,1.56,0,0,0-.37-.1h-.12a1.35,1.35,0,0,0-.28,0l-.11,0a1,1,0,0,0-.6.53,1.17,1.17,0,0,0-.05.11,1.19,1.19,0,0,0-.07.27.49.49,0,0,0,0,.12,1.17,1.17,0,0,0,0,.37c0,.13,0,.19-.14.13h0l-.08,0-.18,0h0A1.15,1.15,0,0,0,15,55h-.07a1,1,0,0,0-.29.11l0,0a1.3,1.3,0,0,0-.23.18l0,0a1.14,1.14,0,0,0-.18.25l0,0a.21.21,0,0,1,0,.06s0,0,0,.07a.13.13,0,0,0,0,.06.36.36,0,0,0,0,.1A.59.59,0,0,0,14,56v.1s0,.09,0,.13,0,.07,0,.1a.56.56,0,0,0,0,.12l0,.09a.41.41,0,0,0,.07.11.41.41,0,0,0,.05.09l.09.1.06.06.12.1.06,0a1,1,0,0,0,.51.15h.08a.78.78,0,0,0,.26,0h0l.27-.12.05,0a1,1,0,0,0,.2-.16l0,0c.1-.1.18-.08.19,0h0a1.28,1.28,0,0,0,.07.28s0,0,0,.06a1.48,1.48,0,0,0,.14.25h0l.2.2.06,0a1.15,1.15,0,0,0,.27.14,1.57,1.57,0,0,0,.3.05h.07a1.33,1.33,0,0,0,.28,0h0a1.23,1.23,0,0,0,.26-.12l.06,0a1.3,1.3,0,0,0,.22-.19h0c.09-.1.17-.07.18.07h0a1,1,0,0,0,.07.28s0,0,0,.05a1.3,1.3,0,0,0,.14.26h0a1.26,1.26,0,0,0,.2.2l.06,0a1.15,1.15,0,0,0,.27.14.93.93,0,0,0,.29,0h.08a1.33,1.33,0,0,0,.28,0h0a1.11,1.11,0,0,0,.27-.12l.05,0a1,1,0,0,0,.23-.18h0c.09-.11.17-.09.18.06s0,0,0,0a.25.25,0,0,0,0,.08,1.33,1.33,0,0,0,.05.19,0,0,0,0,0,0,0h0a1.2,1.2,0,0,0,.16.27l.05.06a1.37,1.37,0,0,0,.23.19l0,0a1.59,1.59,0,0,0,.27.12h0a1.15,1.15,0,0,0,.32,0h.16l.06,0,.11,0,.11,0,.09-.05.11-.07.07-.06.09-.1.06-.07.07-.11,0-.09a.56.56,0,0,0,0-.12.32.32,0,0,0,0-.09.77.77,0,0,0,0-.15s0,0,0-.08A1.93,1.93,0,0,0,22.69,58.05Z" transform="translate(-9.24 -6.83)"/><path class="cls-16" d="M14,41.7a1.15,1.15,0,0,0,.26,0h0a.9.9,0,0,0,.27-.11l0,0a1.56,1.56,0,0,0,.2-.16l0,0c.1-.1.18-.09.19,0h0a1.28,1.28,0,0,0,.07.28s0,0,0,.06a1.28,1.28,0,0,0,.15.25h0a1.19,1.19,0,0,0,.2.19l.06,0a1.16,1.16,0,0,0,.27.14,1,1,0,0,0,.3,0h.07a.86.86,0,0,0,.28,0h0a1.53,1.53,0,0,0,.27-.11l.05,0a1.24,1.24,0,0,0,.22-.18h0c.09-.1.17-.07.18.06h0a.89.89,0,0,0,.07.28.14.14,0,0,0,0,.06,1,1,0,0,0,.14.25h0a1.19,1.19,0,0,0,.2.19l.06.05a1.13,1.13,0,0,0,.27.13.94.94,0,0,0,.3.06h.07a.9.9,0,0,0,.28,0h0a.85.85,0,0,0,.26-.11l.05,0a1.45,1.45,0,0,0,.23-.19h0c.09-.1.16-.08.18.06s0,0,0,0a.28.28,0,0,0,0,.09,1.21,1.21,0,0,0,0,.18s0,0,0,0h0a1.2,1.2,0,0,0,.16.27l.05.05a1.07,1.07,0,0,0,.23.2l0,0a.9.9,0,0,0,.27.11l0,0a1.1,1.1,0,0,0,.31,0h.17l.06,0,.11,0,.11,0,.09-.05.11-.07.07-.07.09-.09.06-.08.07-.11s0-.05,0-.08,0-.09.05-.13,0-.06,0-.09a.77.77,0,0,0,0-.15s0,0,0-.08a1.79,1.79,0,0,0,0-.23h0a.79.79,0,0,0-.1-.27l0-.07L21.31,42l0,0a.68.68,0,0,0-.21-.17l0,0-.21-.09,0,0c-.15,0-.17-.16-.06-.25l0,0a1.29,1.29,0,0,0,.16-.17l0,0a.9.9,0,0,0,.12-.24s0,0,0,0a1.42,1.42,0,0,0,.05-.22.17.17,0,0,1,0-.07,1.42,1.42,0,0,0,0-.29A.82.82,0,0,0,21,40L21,40a.83.83,0,0,0-.13-.18l0-.05a1.2,1.2,0,0,0-.21-.17l0,0a.78.78,0,0,0-.21-.09l0,0c-.15,0-.17-.16,0-.26l0,0,.16-.16,0,0a1.34,1.34,0,0,0,.12-.24.14.14,0,0,0,0-.06,1.6,1.6,0,0,0,.05-.21s0-.05,0-.08a1.32,1.32,0,0,0,0-.28,1.43,1.43,0,0,0-.09-.27.16.16,0,0,1,0-.07,1.09,1.09,0,0,0-.13-.17.1.1,0,0,0,0,0,.87.87,0,0,0-.21-.17l0,0a1.36,1.36,0,0,0-.21-.1h0c-.15-.05-.17-.17-.05-.26l0,0a1.29,1.29,0,0,0,.16-.17l0,0a1.34,1.34,0,0,0,.12-.24.14.14,0,0,0,0-.06,1.6,1.6,0,0,0,.05-.21s0-.06,0-.08a1.13,1.13,0,0,0-.09-.51.43.43,0,0,1,0-.07.83.83,0,0,0-.07-.13L20,35.34l-.09-.1-.08-.06-.1-.07-.09,0L19.51,35a.38.38,0,0,0-.1,0l-.12,0h-.4l-.07,0h-.09a1.25,1.25,0,0,0-.28.15l0,0a1,1,0,0,0-.21.21l0,0a1.15,1.15,0,0,0-.14.27.19.19,0,0,1,0,.07,1.06,1.06,0,0,0,0,.31h0v0a1.23,1.23,0,0,0,0,.19s0,.06,0,.08,0,0,0,0,0,.19-.14.13a1.25,1.25,0,0,0-.37-.09H17.4a1.33,1.33,0,0,0-.28,0l-.11,0a1,1,0,0,0-.6.52l-.05.11a1.28,1.28,0,0,0-.07.28.37.37,0,0,0,0,.11,1.23,1.23,0,0,0,0,.38c.05.13,0,.18-.14.12a1.18,1.18,0,0,0-.37-.09h-.12a.9.9,0,0,0-.28,0l-.11,0a1,1,0,0,0-.59.52l-.05.11a.89.89,0,0,0-.07.28.43.43,0,0,0,0,.11,1.2,1.2,0,0,0,0,.38c0,.13,0,.18-.14.12h0l-.08,0-.19,0h0a1.08,1.08,0,0,0-.31,0h-.07a1,1,0,0,0-.29.1l0,0a1.08,1.08,0,0,0-.24.18l0,0a1.51,1.51,0,0,0-.18.26s0,0,0,0a.11.11,0,0,0,0,.06.11.11,0,0,0,0,.06s0,0,0,.06a.43.43,0,0,0,0,.11s0,.08,0,.13v.1a.69.69,0,0,0,0,.13.28.28,0,0,0,0,.09c0,.05,0,.09,0,.13a.36.36,0,0,0,0,.09.6.6,0,0,0,.06.11.56.56,0,0,0,.05.08l.09.1.06.07.12.09.07,0a1.08,1.08,0,0,0,.5.15Z" transform="translate(-9.24 -6.83)"/><path class="cls-16" d="M24.4,27.59h.06a.85.85,0,0,0,.32,0l.1,0a1,1,0,0,0,.6-.52l0-.09a1.16,1.16,0,0,0,.08-.32s0,0,0-.06a1.13,1.13,0,0,0,0-.32c0-.15.06-.23.19-.18a1.23,1.23,0,0,0,.32.07h.07a1.22,1.22,0,0,0,.32,0l.1,0a1,1,0,0,0,.59-.52.3.3,0,0,0,0-.1.85.85,0,0,0,.09-.31s0,0,0-.07a1.19,1.19,0,0,0,0-.32c0-.15.06-.23.2-.17a1.16,1.16,0,0,0,.31.07h.07a1.13,1.13,0,0,0,.32-.05.17.17,0,0,0,.1,0,.94.94,0,0,0,.35-.2h0A1,1,0,0,0,28.9,24l0,0a1.2,1.2,0,0,0,.1-.37v-.06a1,1,0,0,0-.05-.37s0,0,0-.06a1.45,1.45,0,0,0-.2-.34l0,0s0,0,0,0,0-.05-.07-.07l-.2-.14-.08-.05a1.26,1.26,0,0,0-.38-.1h-.1a1,1,0,0,0-.3,0l-.12.05-.14.05-.11.09-.07,0,0,0-.06,0c-.1.1-.17.07-.18-.06h0a.89.89,0,0,0-.07-.28.14.14,0,0,0,0-.06.94.94,0,0,0-.14-.26h0a1.26,1.26,0,0,0-.2-.2l-.06,0a1,1,0,0,0-.56-.19h-.08a1.33,1.33,0,0,0-.28,0h0a1,1,0,0,0-.27.11l-.05,0a1,1,0,0,0-.22.19h0c-.09.1-.17.07-.18-.07h0a1,1,0,0,0-.07-.28l0-.05a2.15,2.15,0,0,0-.14-.26h0a1.26,1.26,0,0,0-.2-.2l-.06,0a1,1,0,0,0-.57-.19h-.07a1.33,1.33,0,0,0-.28,0h0L23,21l-.06,0a1.24,1.24,0,0,0-.22.18h0c-.09.1-.17.08-.18-.06s0,0,0,0a.28.28,0,0,0,0-.09,1.21,1.21,0,0,0,0-.18s0,0,0,0h0a1.2,1.2,0,0,0-.16-.27l-.05,0a1.07,1.07,0,0,0-.23-.2l0,0a.9.9,0,0,0-.27-.11.05.05,0,0,1,0,0,1.1,1.1,0,0,0-.31,0h-.17l-.06,0-.11,0-.11.05-.09,0-.11.07-.07.07-.09.09-.06.07-.07.11,0,.09s0,.08-.05.13a.24.24,0,0,0,0,.08.88.88,0,0,0,0,.16s0,.05,0,.07a1.94,1.94,0,0,0,0,.24,1.57,1.57,0,0,0,.1.28l0,.06a.8.8,0,0,0,.15.21l0,0a1,1,0,0,0,.23.18l.05,0a.82.82,0,0,0,.24.1h0c.14,0,.17.11.06.19h0a1,1,0,0,0-.21.2l0,0a1,1,0,0,0-.15.25h0a1.28,1.28,0,0,0-.07.28v.07a1,1,0,0,0,0,.3,1.42,1.42,0,0,0,.1.29l0,.06a.72.72,0,0,0,.17.22h0a.91.91,0,0,0,.23.17l.06,0a.88.88,0,0,0,.27.1h0c.13,0,.15.11,0,.19h0a1,1,0,0,0-.21.2l0,.05a1,1,0,0,0-.15.25h0a1.07,1.07,0,0,0-.07.27s0,.05,0,.07a1,1,0,0,0,0,.3h0a.94.94,0,0,0,.1.28l0,.07a1.84,1.84,0,0,0,.17.22h0l.23.17.06,0a.79.79,0,0,0,.27.1h0c.13,0,.15.11,0,.19l-.05.05-.05,0,0,.06-.11.1s-.05.08-.07.13l-.06.12a1,1,0,0,0-.08.29.44.44,0,0,1,0,.1,1.32,1.32,0,0,0,.06.39s0,.05,0,.08a.74.74,0,0,0,.1.22l.06.08,0,0,0,0a1,1,0,0,0,.31.24l0,0a1.27,1.27,0,0,0,.37.1h.06a1.2,1.2,0,0,0,.38,0l0,0a.85.85,0,0,0,.37-.21h0a1.11,1.11,0,0,0,.25-.32l0-.09a1.09,1.09,0,0,0,.07-.3s0-.05,0-.07a1.73,1.73,0,0,0,0-.32c0-.15.06-.23.2-.17A1.13,1.13,0,0,0,24.4,27.59Z" transform="translate(-9.24 -6.83)"/><path class="cls-16" d="M40.82,16a1.12,1.12,0,0,0,.32,0l.1,0a1,1,0,0,0,.61-.54l0,0A1.13,1.13,0,0,0,42,15v-.05a1.2,1.2,0,0,0,0-.38.14.14,0,0,1,0-.06,1.17,1.17,0,0,0-.2-.34v0l0,0L41.6,14a.86.86,0,0,0-.2-.13l-.08-.05a1.27,1.27,0,0,0-.38-.11h-.1a1,1,0,0,0-.3,0l-.12,0-.15.05-.11.09-.06,0,0,0-.06,0c-.1.1-.17.07-.18-.06h0a.89.89,0,0,0-.07-.28l0-.06a1,1,0,0,0-.14-.25h0l-.2-.2-.06,0a1,1,0,0,0-.56-.19h-.08a1.33,1.33,0,0,0-.28,0h0a1.11,1.11,0,0,0-.27.12l0,0a1,1,0,0,0-.23.18h0c-.09.1-.17.08-.18-.06h0a1.27,1.27,0,0,0-.06-.28l0-.06a.77.77,0,0,0-.14-.25h0a1.89,1.89,0,0,0-.2-.2l-.06,0a1.05,1.05,0,0,0-.57-.19h-.07a1.33,1.33,0,0,0-.28,0h0a1.23,1.23,0,0,0-.26.12l-.06,0a1.24,1.24,0,0,0-.22.18h0c-.09.11-.17.09-.18-.06s0,0,0,0a.22.22,0,0,0,0-.08,1.05,1.05,0,0,0,0-.19v0h0a1.4,1.4,0,0,0-.16-.26l0-.06-.23-.2,0,0a1.09,1.09,0,0,0-.27-.11h0a1.09,1.09,0,0,0-.31,0h-.17l-.06,0-.1,0-.12,0-.09.05-.11.08-.07.06-.09.09-.06.08-.07.11s0,.05,0,.08a.65.65,0,0,0,0,.13.32.32,0,0,0,0,.09.77.77,0,0,0,0,.15s0,.05,0,.07a1.17,1.17,0,0,0,.12.52l0,.07a1.37,1.37,0,0,0,.15.21l0,0a1.37,1.37,0,0,0,.23.17l.05,0,.24.1h0c.14,0,.17.12.06.2h0a1,1,0,0,0-.21.19l0,.05a1.28,1.28,0,0,0-.15.25h0a2.68,2.68,0,0,0-.07.27v.08a1.06,1.06,0,0,0,.11.58.43.43,0,0,1,0,.07.87.87,0,0,0,.17.22h0a1.3,1.3,0,0,0,.23.18l.06,0a1.08,1.08,0,0,0,.27.1h0c.13,0,.15.11,0,.19h0a1,1,0,0,0-.21.19l0,.05a1.28,1.28,0,0,0-.15.25h0a1.34,1.34,0,0,0-.07.27.22.22,0,0,1,0,.08,1.51,1.51,0,0,0,0,.3.94.94,0,0,0,.1.28.16.16,0,0,0,0,.07,1.12,1.12,0,0,0,.16.22h0l.23.17.06,0a1.08,1.08,0,0,0,.27.1h0c.13,0,.15.11,0,.19s0,0-.05,0,0,0,0,0,0,0,0,.06l-.12.1a.91.91,0,0,0-.07.14l-.07.11a1.63,1.63,0,0,0-.07.3s0,.06,0,.09a1.33,1.33,0,0,0,0,.4s0,.05,0,.08a1.51,1.51,0,0,0,.11.22l.06.08,0,0,0,0a1.5,1.5,0,0,0,.31.24l.05,0a1.2,1.2,0,0,0,.37.1h0a1.27,1.27,0,0,0,.39-.05l0,0a1,1,0,0,0,.37-.21h0a1.11,1.11,0,0,0,.25-.32,1,1,0,0,0,0-.1,1.09,1.09,0,0,0,.08-.31.25.25,0,0,1,0-.07,1.82,1.82,0,0,0,0-.32c0-.15.06-.23.2-.17a1.08,1.08,0,0,0,.31.07h.07a1.75,1.75,0,0,0,.32,0l.1,0a1,1,0,0,0,.59-.51l0-.1a1.18,1.18,0,0,0,.08-.31s0-.05,0-.07a.85.85,0,0,0,0-.32c0-.15.06-.23.2-.18a.87.87,0,0,0,.31.07h.07a.85.85,0,0,0,.32,0l.1,0a1,1,0,0,0,.6-.52l0-.09a1.16,1.16,0,0,0,.08-.32s0,0,0-.06a1.13,1.13,0,0,0,0-.32c0-.15,0-.23.19-.18a1.23,1.23,0,0,0,.32.07Z" transform="translate(-9.24 -6.83)"/></g><g id="RED_ELEMENTS-5" data-name="RED ELEMENTS-5"><use width="47.8" height="42.99" transform="matrix(0.18, -0.06, -0.06, -0.18, 13.74, 32.89)" xlink:href="#New_Symbol_2"/><use width="47.8" height="42.99" transform="matrix(0, -0.19, -0.19, 0, 30.25, 25.1)" xlink:href="#New_Symbol_2"/><use width="47.8" height="42.99" transform="matrix(-0.11, -0.16, -0.16, 0.11, 31.72, 59.18)" xlink:href="#New_Symbol_2"/></g><g id="SHADE_20" data-name="SHADE 20" class="cls-57"><path class="cls-16" d="M33.48,66.84a1.34,1.34,0,0,0,.17-.31c.05-.13.13-.13.19,0a1.12,1.12,0,0,0,1.52.49,1.08,1.08,0,0,0,.55-.62c.05-.13.13-.14.19,0a1.13,1.13,0,0,0,1.53.49,1.15,1.15,0,0,0,.55-.62c0-.13.12-.14.19,0a1.31,1.31,0,0,0,.2.28,1.14,1.14,0,1,0,.63-1.92c-.15,0-.2,0-.13-.16a1.13,1.13,0,0,0-.34-1.56,1.1,1.1,0,0,0-.81-.16c-.14,0-.18-.05-.11-.16A1.13,1.13,0,0,0,37.47,61a1.15,1.15,0,0,0-.81-.16c-.14,0-.19,0-.11-.16a1.23,1.23,0,0,0,.14-.31,1.14,1.14,0,1,0-2,.36c.09.12,0,.23-.12.24a1.12,1.12,0,0,0-1.1,1.16,1.14,1.14,0,0,0,.21.64c.09.12,0,.23-.11.23a1.13,1.13,0,0,0-.89,1.8c.08.12,0,.23-.12.24a1.13,1.13,0,1,0,.93,1.82Z" transform="translate(-9.24 -6.83)"/><path class="cls-16" d="M24.19,32.3a1,1,0,0,0,.24.23c.12.09.1.16,0,.19a1.13,1.13,0,0,0-.42,2c.11.08.1.16,0,.19a1.13,1.13,0,0,0-.43,2c.12.08.11.16,0,.19a1,1,0,0,0-.33.12,1.13,1.13,0,1,0,1.68,1.12c0-.15.1-.18.19-.08a1.14,1.14,0,0,0,1.6.09,1.1,1.1,0,0,0,.37-.74c0-.14.09-.16.18-.06a1.13,1.13,0,0,0,1.6.09,1.11,1.11,0,0,0,.38-.74c0-.13.08-.16.18-.06a1.38,1.38,0,0,0,.26.23,1.14,1.14,0,1,0,.19-2c-.14,0-.23,0-.19-.18a1.13,1.13,0,0,0-.83-1.37,1.1,1.1,0,0,0-.67,0c-.14.06-.23,0-.19-.17A1.14,1.14,0,0,0,27.06,32a1.18,1.18,0,0,0-.67,0c-.14,0-.23,0-.2-.17a1.13,1.13,0,0,0-.82-1.38,1.14,1.14,0,0,0-1.18,1.79Z" transform="translate(-9.24 -6.83)"/><path class="cls-16" d="M37.23,23.77a1.37,1.37,0,0,0,0,.35c0,.14,0,.17-.16.09a1.14,1.14,0,0,0-1.59.24,1.1,1.1,0,0,0-.21.8c0,.14-.06.18-.17.1a1.12,1.12,0,0,0-1.58.23,1.15,1.15,0,0,0-.22.8c0,.14,0,.18-.16.1a1.3,1.3,0,0,0-.31-.16,1.13,1.13,0,0,0-.74,2.14,1.14,1.14,0,0,0,1-.14c.11-.09.19-.05.18.08a1.14,1.14,0,0,0,1.8,1c.11-.08.18,0,.16.1a1.14,1.14,0,0,0,1,1.25,1.13,1.13,0,0,0,.79-.22c.11-.08.18-.05.17.1a1.13,1.13,0,1,0,1.66-.87c-.14-.07-.14-.2,0-.27A1.13,1.13,0,0,0,39.35,28a1.12,1.12,0,0,0-.47-.47c-.14-.07-.14-.2,0-.27a1.13,1.13,0,0,0,.47-1.53,1.18,1.18,0,0,0-.47-.47c-.14-.07-.14-.19,0-.27a1.13,1.13,0,1,0-1.65-1.22Z" transform="translate(-9.24 -6.83)"/></g><g id="RED_ELEMENTS-6" data-name="RED ELEMENTS-6"><use width="47.8" height="42.99" transform="matrix(0.02, 0.19, 0.19, -0.02, 20.79, 39.29)" xlink:href="#New_Symbol_2"/><use width="47.8" height="42.99" transform="matrix(0.18, 0.07, 0.07, -0.18, 22.02, 32.66)" xlink:href="#New_Symbol_2"/></g><g id="SHADE_10" data-name="SHADE 10" class="cls-58"><path class="cls-16" d="M38.65,49.81s0-.07,0-.11l0-.12,0-.09a.61.61,0,0,0,0-.12l0-.09-.08-.11-.06-.07a.52.52,0,0,0-.11-.1l-.06,0a.72.72,0,0,0-.21-.12.9.9,0,0,0-.28-.08h-.08a.77.77,0,0,0-.26,0h0a.9.9,0,0,0-.28.08l0,0a1.07,1.07,0,0,0-.22.15h0c-.1.1-.19.07-.19-.06h0a.92.92,0,0,0,0-.29s0,0,0-.06a.91.91,0,0,0-.13-.26h0a.91.91,0,0,0-.18-.21l-.06-.05a1,1,0,0,0-.25-.16,1.11,1.11,0,0,0-.3-.08h-.07a1.31,1.31,0,0,0-.28,0h0a1.52,1.52,0,0,0-.28.09l-.05,0a1,1,0,0,0-.24.16h0c-.1.1-.17.06-.17-.07h0a1.35,1.35,0,0,0,0-.29s0,0,0-.06a1.23,1.23,0,0,0-.12-.26h0a.91.91,0,0,0-.18-.21l-.06,0a1.07,1.07,0,0,0-.25-.16,1,1,0,0,0-.29-.08h-.08a1.34,1.34,0,0,0-.28,0h0a1.43,1.43,0,0,0-.27.09l-.06,0a1.19,1.19,0,0,0-.23.16h0c-.11.1-.18.07-.18-.07V47a.72.72,0,0,0,0-.19v0h0a1.11,1.11,0,0,0-.14-.29.1.1,0,0,0,0,0,1.15,1.15,0,0,0-.21-.23l0,0a1.3,1.3,0,0,0-.26-.14h0a1.06,1.06,0,0,0-.31-.05H31.1L31,46l-.12,0-.1,0-.11.07-.08.06-.09.08a.25.25,0,0,0-.07.08l-.08.1a.35.35,0,0,1-.05.08.5.5,0,0,0-.05.13.2.2,0,0,0,0,.08l0,.15a.19.19,0,0,1,0,.07v.24a2.13,2.13,0,0,0,.07.27.3.3,0,0,0,0,.08,1.74,1.74,0,0,0,.1.19.1.1,0,0,1,0,.05,1.7,1.7,0,0,0,.19.19l0,0a.78.78,0,0,0,.2.11l0,0c.14.06.15.18,0,.27l0,0a1.3,1.3,0,0,0-.18.15l0,0a1.7,1.7,0,0,0-.15.22.14.14,0,0,1,0,.06.83.83,0,0,0-.06.21s0,.05,0,.07a2.81,2.81,0,0,0,0,.29,2.68,2.68,0,0,0,.07.27.16.16,0,0,0,0,.07,1.14,1.14,0,0,0,.1.19l0,.05a1.14,1.14,0,0,0,.19.19l0,0,.2.11,0,0a.14.14,0,0,1,0,.26s0,0,0,0a.84.84,0,0,0-.18.15l0,0a1.14,1.14,0,0,0-.15.23.14.14,0,0,1,0,.06.66.66,0,0,0-.06.2s0,.05,0,.08a1.31,1.31,0,0,0,0,.28,1.28,1.28,0,0,0,.07.28l0,.07a1.18,1.18,0,0,0,.11.19l0,0a1.7,1.7,0,0,0,.19.19l0,0a.82.82,0,0,0,.2.12l0,0c.14,0,.16.17,0,.26l0,0a1.37,1.37,0,0,0-.18.16l0,0a.91.91,0,0,0-.15.23s0,0,0,.05a.83.83,0,0,0-.06.21.25.25,0,0,0,0,.07,1.41,1.41,0,0,0,0,.29,1.55,1.55,0,0,0,.05.23l0,.07a.61.61,0,0,0,.07.14.18.18,0,0,0,.05.07,1,1,0,0,0,.08.11l.07.07.1.09.08,0,.11.06.09,0,.12,0,.11,0h.46a1.48,1.48,0,0,0,.29-.12l0,0a1,1,0,0,0,.22-.19l0,0a1,1,0,0,0,.16-.26l0-.06a1.55,1.55,0,0,0,.07-.31h0v0a.61.61,0,0,0,0-.19.19.19,0,0,0,0-.08v0c0-.14,0-.19.16-.12a1.14,1.14,0,0,0,.35.13h.12a1.31,1.31,0,0,0,.28,0l.12,0a1.56,1.56,0,0,0,.37-.17,1.07,1.07,0,0,0,.32-.41.79.79,0,0,0,.1-.27l0-.11a1.22,1.22,0,0,0,0-.38c0-.13,0-.18.16-.11a1.12,1.12,0,0,0,.35.12l.12,0a1.32,1.32,0,0,0,.28,0l.12,0a1,1,0,0,0,.64-.47.47.47,0,0,0,.05-.1,1,1,0,0,0,.1-.27.43.43,0,0,0,0-.11,1,1,0,0,0,0-.38c0-.14,0-.19.15-.11h0l.08,0,.18.06h0a1.08,1.08,0,0,0,.31,0h.08a1,1,0,0,0,.29-.07l0,0a1.32,1.32,0,0,0,.25-.16l0,0a.91.91,0,0,0,.2-.24l0,0a.33.33,0,0,0,0-.06l0-.06s0,0,0-.06a1,1,0,0,1,0-.1c0-.05,0-.09,0-.13a.38.38,0,0,0,0-.1S38.65,49.85,38.65,49.81Z" transform="translate(-9.24 -6.83)"/><path class="cls-16" d="M38,41.89a.94.94,0,0,0,.13.24l0,0,.15.16.06.05a1.05,1.05,0,0,0,.47.21h.32l.14,0,.09,0,.12,0,.09,0,.11-.06a.46.46,0,0,0,.07-.07l.09-.08.07-.08.07-.11A.41.41,0,0,0,40,42s0,0,0-.06l0-.07a.14.14,0,0,1,0-.06v0a1.05,1.05,0,0,0,0-.31v0a1.36,1.36,0,0,0-.06-.29v0a1.17,1.17,0,0,0-.15-.27l0,0a1,1,0,0,0-.24-.22h0a.7.7,0,0,0-.17-.09l-.08,0h0c-.14,0-.14-.12,0-.19h0a1.06,1.06,0,0,0,.23-.19l0,0a1,1,0,0,0,.16-.24h0a1.07,1.07,0,0,0,.09-.27s0,0,0-.07a1,1,0,0,0-.08-.59l0-.07a1.14,1.14,0,0,0-.15-.23h0a1,1,0,0,0-.22-.19l-.05,0a1.23,1.23,0,0,0-.26-.12h0c-.14,0-.15-.12,0-.19h0a1,1,0,0,0,.22-.19s0,0,0,0a1,1,0,0,0,.17-.24h0a.77.77,0,0,0,.08-.27.64.64,0,0,0,0-.07,1.08,1.08,0,0,0-.08-.59l0-.07a1.14,1.14,0,0,0-.15-.23h0a1.3,1.3,0,0,0-.22-.19l0,0a1.31,1.31,0,0,0-.27-.12h0c-.13,0-.14-.12,0-.19l.06-.05,0,0s0,0,0-.06l.11-.09a.57.57,0,0,0,.08-.13l.08-.11a1.4,1.4,0,0,0,.09-.29l0-.09a1.33,1.33,0,0,0,0-.4.32.32,0,0,0,0-.09,1,1,0,0,0-.09-.22L39,34.07l0,0s0,0,0,0a1.42,1.42,0,0,0-.3-.25l-.05,0a1.18,1.18,0,0,0-.36-.12h0a1,1,0,0,0-.39,0h0a1.1,1.1,0,0,0-.65.49.54.54,0,0,1,0,.11,1.22,1.22,0,0,0-.09.27.43.43,0,0,0,0,.11A1.09,1.09,0,0,0,37,35c0,.14,0,.2-.15.14a1.09,1.09,0,0,0-.36-.12h-.12a.88.88,0,0,0-.28,0L36,35a1.05,1.05,0,0,0-.64.49l0,.1a1.43,1.43,0,0,0-.09.27.5.5,0,0,0,0,.12,1.15,1.15,0,0,0,0,.37c0,.14,0,.19-.15.12a1.09,1.09,0,0,0-.36-.12H34.6a1.37,1.37,0,0,0-.29,0l-.11,0a.85.85,0,0,0-.37.18.94.94,0,0,0-.26.3l-.06.1a1.31,1.31,0,0,0-.09.28,1,1,0,0,0,0,.49c0,.13,0,.18-.15.11h0l-.08,0a1.06,1.06,0,0,0-.19-.06h0a1.61,1.61,0,0,0-.31,0h-.07a1,1,0,0,0-.3.08l0,0A1,1,0,0,0,32,38l0,0a1.5,1.5,0,0,0-.19.25l0,0a.11.11,0,0,0,0,.06l0,.06a.64.64,0,0,1,0,.07l0,.1a.51.51,0,0,0,0,.13.31.31,0,0,0,0,.1V39a.31.31,0,0,1,0,.1l0,.12a.47.47,0,0,1,0,.09l.06.12,0,.08.09.11.05.07.12.1.06.05a.72.72,0,0,0,.21.12,1.34,1.34,0,0,0,.27.07h.35a.79.79,0,0,0,.26-.08l0,0a.82.82,0,0,0,.2-.12l0,0c.12-.09.23,0,.24.1v0a.9.9,0,0,0,.06.22.06.06,0,0,0,0,0,.92.92,0,0,0,.13.24l0,0a1.07,1.07,0,0,0,.14.16l.06,0a.89.89,0,0,0,.25.14,1.38,1.38,0,0,0,.27.08h.08a.81.81,0,0,0,.22,0H35a.87.87,0,0,0,.26-.08l0,0a.76.76,0,0,0,.19-.12l0,0c.12-.09.23,0,.25.1v0a1.8,1.8,0,0,0,.06.22s0,0,0,0a.92.92,0,0,0,.13.24l0,.05a.75.75,0,0,0,.15.16l.05.05a2,2,0,0,0,.25.14,1.38,1.38,0,0,0,.27.08h.36a.79.79,0,0,0,.26-.08l0,0a1.06,1.06,0,0,0,.2-.12l0,0c.11-.1.23-.05.24.1s0,0,0,0a1.74,1.74,0,0,0,.05.22S38,41.87,38,41.89Z" transform="translate(-9.24 -6.83)"/></g></g></g></svg>